<?xml version="1.0" encoding="UTF-8" standalone="no"?>
<!-- Generated by SVGo -->

<svg
   xmlns:dc="http://purl.org/dc/elements/1.1/"
   xmlns:cc="http://creativecommons.org/ns#"
   xmlns:rdf="http://www.w3.org/1999/02/22-rdf-syntax-ns#"
   xmlns:svg="http://www.w3.org/2000/svg"
   xmlns="http://www.w3.org/2000/svg"
   xmlns:sodipodi="http://sodipodi.sourceforge.net/DTD/sodipodi-0.dtd"
   xmlns:inkscape="http://www.inkscape.org/namespaces/inkscape"
   width="139.00995mm"
   height="107.25011mm"
   viewBox="0 0 139.00994 107.25011"
   version="1.1"
   id="svg35893"
   sodipodi:docname="all-layers-2screws.svg"
   inkscape:version="0.92.4 5da689c313, 2019-01-14">
  <metadata
     id="metadata35899">
    <rdf:RDF>
      <cc:Work
         rdf:about="">
        <dc:format>image/svg+xml</dc:format>
        <dc:type
           rdf:resource="http://purl.org/dc/dcmitype/StillImage" />
        <dc:title></dc:title>
      </cc:Work>
    </rdf:RDF>
  </metadata>
  <defs
     id="defs35897" />
  <sodipodi:namedview
     pagecolor="#ffffff"
     bordercolor="#666666"
     borderopacity="1"
     objecttolerance="10"
     gridtolerance="10"
     guidetolerance="10"
     inkscape:pageopacity="0"
     inkscape:pageshadow="2"
     inkscape:window-width="1920"
     inkscape:window-height="1061"
     id="namedview35895"
     showgrid="false"
     inkscape:zoom="1.509673"
     inkscape:cx="324.68637"
     inkscape:cy="184.60867"
     inkscape:window-x="1080"
     inkscape:window-y="306"
     inkscape:window-maximized="0"
     inkscape:current-layer="layer5"
     inkscape:snap-bbox="false"
     inkscape:bbox-paths="true"
     inkscape:object-paths="true"
     inkscape:snap-midpoints="false"
     inkscape:bbox-nodes="true"
     inkscape:snap-bbox-edge-midpoints="false"
     inkscape:snap-smooth-nodes="false"
     inkscape:snap-intersection-paths="true"
     inkscape:object-nodes="true"
     inkscape:measure-start="337.597,469.866"
     inkscape:measure-end="342.049,470.613"
     inkscape:snap-bbox-midpoints="true"
     inkscape:snap-nodes="true"
     inkscape:snap-others="false"
     inkscape:document-units="mm"
     fit-margin-top="0"
     fit-margin-left="0"
     fit-margin-right="0"
     fit-margin-bottom="0" />
  <g
     inkscape:groupmode="layer"
     id="layer2"
     inkscape:label="switch/middle/base"
     style="display:inline"
     transform="translate(-17.560049,-12.150896)">
    <circle
       style="fill:none;fill-opacity:1;stroke:#0000f1;stroke-width:0.028;stroke-linecap:round;stroke-linejoin:round;stroke-miterlimit:4;stroke-dasharray:none;stroke-dashoffset:0;stroke-opacity:1;paint-order:normal"
       id="path23671"
       cx="150.2905"
       cy="30.030209"
       r="2.3999999" />
    <circle
       r="2.3999999"
       cy="101.52089"
       cx="150.2905"
       id="circle23673"
       style="fill:none;fill-opacity:1;stroke:#0000f1;stroke-width:0.028;stroke-linecap:round;stroke-linejoin:round;stroke-miterlimit:4;stroke-dasharray:none;stroke-dashoffset:0;stroke-opacity:1;paint-order:normal" />
  </g>
  <g
     inkscape:groupmode="layer"
     id="layer5"
     inkscape:label="switch/base"
     style="display:inline"
     transform="translate(-17.560049,-12.150896)">
    <polygon
       id="polygon23629"
       style="fill:none;stroke:#0000f1;stroke-width:0.028;stroke-miterlimit:4;stroke-dasharray:none;stroke-opacity:1"
       points="65.899,15.476 65.94,15.548 65.986,15.617 66.037,15.681 66.093,15.742 66.153,15.798 66.218,15.849 66.286,15.895 66.358,15.935 66.433,15.97 66.511,15.998 66.59,16.02 66.671,16.037 66.753,16.046 66.835,16.05 66.917,16.046 66.999,16.037 67.08,16.02 67.159,15.998 67.237,15.97 67.312,15.935 67.384,15.895 67.452,15.849 67.517,15.798 67.577,15.742 67.633,15.681 67.684,15.617 67.73,15.548 67.771,15.476 67.805,15.401 67.834,15.324 67.856,15.245 67.872,15.164 67.882,15.082 67.885,15 67.882,14.917 67.872,14.835 67.856,14.754 67.834,14.675 67.805,14.598 67.771,14.523 67.73,14.451 67.684,14.382 67.633,14.318 67.577,14.257 67.517,14.201 67.452,14.15 67.384,14.104 67.312,14.064 67.237,14.029 67.159,14.001 67.08,13.979 66.999,13.962 66.917,13.953 66.835,13.95 66.753,13.953 66.671,13.962 66.59,13.979 66.511,14.001 66.433,14.029 66.358,14.064 66.286,14.104 66.218,14.15 66.153,14.201 66.093,14.257 66.037,14.318 65.986,14.382 65.94,14.451 65.899,14.523 65.865,14.598 65.836,14.675 65.814,14.754 65.798,14.835 65.788,14.917 65.785,15 65.788,15.082 65.798,15.164 65.814,15.245 65.836,15.324 65.865,15.401 "
       transform="translate(-46.275451,0.151999)" />
    <polygon
       transform="translate(-46.275499,50.7765)"
       points="66.835,16.05 66.917,16.046 66.999,16.037 67.08,16.02 67.159,15.998 67.237,15.97 67.312,15.935 67.384,15.895 67.452,15.849 67.517,15.798 67.577,15.742 67.633,15.681 67.684,15.617 67.73,15.548 67.771,15.476 67.805,15.401 67.834,15.324 67.856,15.245 67.872,15.164 67.882,15.082 67.885,15 67.882,14.917 67.872,14.835 67.856,14.754 67.834,14.675 67.805,14.598 67.771,14.523 67.73,14.451 67.684,14.382 67.633,14.318 67.577,14.257 67.517,14.201 67.452,14.15 67.384,14.104 67.312,14.064 67.237,14.029 67.159,14.001 67.08,13.979 66.999,13.962 66.917,13.953 66.835,13.95 66.753,13.953 66.671,13.962 66.59,13.979 66.511,14.001 66.433,14.029 66.358,14.064 66.286,14.104 66.218,14.15 66.153,14.201 66.093,14.257 66.037,14.318 65.986,14.382 65.94,14.451 65.899,14.523 65.865,14.598 65.836,14.675 65.814,14.754 65.798,14.835 65.788,14.917 65.785,15 65.788,15.082 65.798,15.164 65.814,15.245 65.836,15.324 65.865,15.401 65.899,15.476 65.94,15.548 65.986,15.617 66.037,15.681 66.093,15.742 66.153,15.798 66.218,15.849 66.286,15.895 66.358,15.935 66.433,15.97 66.511,15.998 66.59,16.02 66.671,16.037 66.753,16.046 "
       style="fill:none;stroke:#0000f1;stroke-width:0.028;stroke-miterlimit:4;stroke-dasharray:none;stroke-opacity:1"
       id="polygon23633" />
    <polygon
       id="polygon23635"
       style="fill:none;stroke:#0000f1;stroke-width:0.028;stroke-miterlimit:4;stroke-dasharray:none;stroke-opacity:1"
       points="67.577,15.742 67.633,15.681 67.684,15.617 67.73,15.548 67.771,15.476 67.805,15.401 67.834,15.324 67.856,15.245 67.872,15.164 67.882,15.082 67.885,15 67.882,14.917 67.872,14.835 67.856,14.754 67.834,14.675 67.805,14.598 67.771,14.523 67.73,14.451 67.684,14.382 67.633,14.318 67.577,14.257 67.517,14.201 67.452,14.15 67.384,14.104 67.312,14.064 67.237,14.029 67.159,14.001 67.08,13.979 66.999,13.962 66.917,13.953 66.835,13.95 66.753,13.953 66.671,13.962 66.59,13.979 66.511,14.001 66.433,14.029 66.358,14.064 66.286,14.104 66.218,14.15 66.153,14.201 66.093,14.257 66.037,14.318 65.986,14.382 65.94,14.451 65.899,14.523 65.865,14.598 65.836,14.675 65.814,14.754 65.798,14.835 65.788,14.917 65.785,15 65.788,15.082 65.798,15.164 65.814,15.245 65.836,15.324 65.865,15.401 65.899,15.476 65.94,15.548 65.986,15.617 66.037,15.681 66.093,15.742 66.153,15.798 66.218,15.849 66.286,15.895 66.358,15.935 66.433,15.97 66.511,15.998 66.59,16.02 66.671,16.037 66.753,16.046 66.835,16.05 66.917,16.046 66.999,16.037 67.08,16.02 67.159,15.998 67.237,15.97 67.312,15.935 67.384,15.895 67.452,15.849 67.517,15.798 "
       transform="translate(-46.275499,101.401)" />
    <polygon
       transform="translate(13.95,101.401)"
       points="67.633,15.681 67.684,15.617 67.73,15.548 67.771,15.476 67.805,15.401 67.834,15.324 67.856,15.245 67.872,15.164 67.882,15.082 67.885,15 67.882,14.917 67.872,14.835 67.856,14.754 67.834,14.675 67.805,14.598 67.771,14.523 67.73,14.451 67.684,14.382 67.633,14.318 67.577,14.257 67.517,14.201 67.452,14.15 67.384,14.104 67.312,14.064 67.237,14.029 67.159,14.001 67.08,13.979 66.999,13.962 66.917,13.953 66.835,13.95 66.753,13.953 66.671,13.962 66.59,13.979 66.511,14.001 66.433,14.029 66.358,14.064 66.286,14.104 66.218,14.15 66.153,14.201 66.093,14.257 66.037,14.318 65.986,14.382 65.94,14.451 65.899,14.523 65.865,14.598 65.836,14.675 65.814,14.754 65.798,14.835 65.788,14.917 65.785,15 65.788,15.082 65.798,15.164 65.814,15.245 65.836,15.324 65.865,15.401 65.899,15.476 65.94,15.548 65.986,15.617 66.037,15.681 66.093,15.742 66.153,15.798 66.218,15.849 66.286,15.895 66.358,15.935 66.433,15.97 66.511,15.998 66.59,16.02 66.671,16.037 66.753,16.046 66.835,16.05 66.917,16.046 66.999,16.037 67.08,16.02 67.159,15.998 67.237,15.97 67.312,15.935 67.384,15.895 67.452,15.849 67.517,15.798 67.577,15.742 "
       style="fill:none;stroke:#0000f1;stroke-width:0.028;stroke-miterlimit:4;stroke-dasharray:none;stroke-opacity:1"
       id="polygon23637" />
    <polygon
       id="polygon23639"
       style="fill:none;stroke:#0000f1;stroke-width:0.028;stroke-miterlimit:4;stroke-dasharray:none;stroke-opacity:1"
       points="67.684,15.617 67.73,15.548 67.771,15.476 67.805,15.401 67.834,15.324 67.856,15.245 67.872,15.164 67.882,15.082 67.885,15 67.882,14.917 67.872,14.835 67.856,14.754 67.834,14.675 67.805,14.598 67.771,14.523 67.73,14.451 67.684,14.382 67.633,14.318 67.577,14.257 67.517,14.201 67.452,14.15 67.384,14.104 67.312,14.064 67.237,14.029 67.159,14.001 67.08,13.979 66.999,13.962 66.917,13.953 66.835,13.95 66.753,13.953 66.671,13.962 66.59,13.979 66.511,14.001 66.433,14.029 66.358,14.064 66.286,14.104 66.218,14.15 66.153,14.201 66.093,14.257 66.037,14.318 65.986,14.382 65.94,14.451 65.899,14.523 65.865,14.598 65.836,14.675 65.814,14.754 65.798,14.835 65.788,14.917 65.785,15 65.788,15.082 65.798,15.164 65.814,15.245 65.836,15.324 65.865,15.401 65.899,15.476 65.94,15.548 65.986,15.617 66.037,15.681 66.093,15.742 66.153,15.798 66.218,15.849 66.286,15.895 66.358,15.935 66.433,15.97 66.511,15.998 66.59,16.02 66.671,16.037 66.753,16.046 66.835,16.05 66.917,16.046 66.999,16.037 67.08,16.02 67.159,15.998 67.237,15.97 67.312,15.935 67.384,15.895 67.452,15.849 67.517,15.798 67.577,15.742 67.633,15.681 "
       transform="translate(74.175501,101.401)" />
    <polygon
       transform="translate(74.175501,50.776)"
       points="67.771,15.476 67.805,15.401 67.834,15.324 67.856,15.245 67.872,15.164 67.882,15.082 67.885,15 67.882,14.917 67.872,14.835 67.856,14.754 67.834,14.675 67.805,14.598 67.771,14.523 67.73,14.451 67.684,14.382 67.633,14.318 67.577,14.257 67.517,14.201 67.452,14.15 67.384,14.104 67.312,14.064 67.237,14.029 67.159,14.001 67.08,13.979 66.999,13.962 66.917,13.953 66.835,13.95 66.753,13.953 66.671,13.962 66.59,13.979 66.511,14.001 66.433,14.029 66.358,14.064 66.286,14.104 66.218,14.15 66.153,14.201 66.093,14.257 66.037,14.318 65.986,14.382 65.94,14.451 65.899,14.523 65.865,14.598 65.836,14.675 65.814,14.754 65.798,14.835 65.788,14.917 65.785,15 65.788,15.082 65.798,15.164 65.814,15.245 65.836,15.324 65.865,15.401 65.899,15.476 65.94,15.548 65.986,15.617 66.037,15.681 66.093,15.742 66.153,15.798 66.218,15.849 66.286,15.895 66.358,15.935 66.433,15.97 66.511,15.998 66.59,16.02 66.671,16.037 66.753,16.046 66.835,16.05 66.917,16.046 66.999,16.037 67.08,16.02 67.159,15.998 67.237,15.97 67.312,15.935 67.384,15.895 67.452,15.849 67.517,15.798 67.577,15.742 67.633,15.681 67.684,15.617 67.73,15.548 "
       style="fill:none;stroke:#0000f1;stroke-width:0.028;stroke-miterlimit:4;stroke-dasharray:none;stroke-opacity:1"
       id="polygon23641" />
    <polygon
       id="polygon23643"
       style="fill:none;stroke:#0000f1;stroke-width:0.028;stroke-miterlimit:4;stroke-dasharray:none;stroke-opacity:1"
       points="67.805,15.401 67.834,15.324 67.856,15.245 67.872,15.164 67.882,15.082 67.885,15 67.882,14.917 67.872,14.835 67.856,14.754 67.834,14.675 67.805,14.598 67.771,14.523 67.73,14.451 67.684,14.382 67.633,14.318 67.577,14.257 67.517,14.201 67.452,14.15 67.384,14.104 67.312,14.064 67.237,14.029 67.159,14.001 67.08,13.979 66.999,13.962 66.917,13.953 66.835,13.95 66.753,13.953 66.671,13.962 66.59,13.979 66.511,14.001 66.433,14.029 66.358,14.064 66.286,14.104 66.218,14.15 66.153,14.201 66.093,14.257 66.037,14.318 65.986,14.382 65.94,14.451 65.899,14.523 65.865,14.598 65.836,14.675 65.814,14.754 65.798,14.835 65.788,14.917 65.785,15 65.788,15.082 65.798,15.164 65.814,15.245 65.836,15.324 65.865,15.401 65.899,15.476 65.94,15.548 65.986,15.617 66.037,15.681 66.093,15.742 66.153,15.798 66.218,15.849 66.286,15.895 66.358,15.935 66.433,15.97 66.511,15.998 66.59,16.02 66.671,16.037 66.753,16.046 66.835,16.05 66.917,16.046 66.999,16.037 67.08,16.02 67.159,15.998 67.237,15.97 67.312,15.935 67.384,15.895 67.452,15.849 67.517,15.798 67.577,15.742 67.633,15.681 67.684,15.617 67.73,15.548 67.771,15.476 "
       transform="translate(74.175501,0.150999)" />
    <polygon
       transform="translate(11.000954,0.225178)"
       points="66.358,15.935 66.433,15.97 66.511,15.998 66.59,16.02 66.671,16.037 66.753,16.046 66.835,16.05 66.917,16.046 66.999,16.037 67.08,16.02 67.159,15.998 67.237,15.97 67.312,15.935 67.384,15.895 67.452,15.849 67.517,15.798 67.577,15.742 67.633,15.681 67.684,15.617 67.73,15.548 67.771,15.476 67.805,15.401 67.834,15.324 67.856,15.245 67.872,15.164 67.882,15.082 67.885,15 67.882,14.917 67.872,14.835 67.856,14.754 67.834,14.675 67.805,14.598 67.771,14.523 67.73,14.451 67.684,14.382 67.633,14.318 67.577,14.257 67.517,14.201 67.452,14.15 67.384,14.104 67.312,14.064 67.237,14.029 67.159,14.001 67.08,13.979 66.999,13.962 66.917,13.953 66.835,13.95 66.753,13.953 66.671,13.962 66.59,13.979 66.511,14.001 66.433,14.029 66.358,14.064 66.286,14.104 66.218,14.15 66.153,14.201 66.093,14.257 66.037,14.318 65.986,14.382 65.94,14.451 65.899,14.523 65.865,14.598 65.836,14.675 65.814,14.754 65.798,14.835 65.788,14.917 65.785,15 65.788,15.082 65.798,15.164 65.814,15.245 65.836,15.324 65.865,15.401 65.899,15.476 65.94,15.548 65.986,15.617 66.037,15.681 66.093,15.742 66.153,15.798 66.218,15.849 66.286,15.895 "
       style="display:inline;fill:none;stroke:#0000f1;stroke-width:0.028;stroke-miterlimit:4;stroke-dasharray:none;stroke-opacity:1"
       id="polygon22891" />
    <polygon
       transform="translate(15.551004,0.225178)"
       points="92.433,15.97 92.511,15.998 92.59,16.02 92.671,16.037 92.753,16.046 92.835,16.05 92.917,16.046 92.999,16.037 93.08,16.02 93.159,15.998 93.237,15.97 93.312,15.935 93.384,15.895 93.452,15.849 93.517,15.798 93.577,15.742 93.633,15.681 93.684,15.617 93.73,15.548 93.771,15.476 93.805,15.401 93.834,15.324 93.856,15.245 93.872,15.164 93.882,15.082 93.885,15 93.882,14.917 93.872,14.835 93.856,14.754 93.834,14.675 93.805,14.598 93.771,14.523 93.73,14.451 93.684,14.382 93.633,14.318 93.577,14.257 93.517,14.201 93.452,14.15 93.384,14.104 93.312,14.064 93.237,14.029 93.159,14.001 93.08,13.979 92.999,13.962 92.917,13.953 92.835,13.95 92.753,13.953 92.671,13.962 92.59,13.979 92.511,14.001 92.433,14.029 92.358,14.064 92.286,14.104 92.218,14.15 92.153,14.201 92.093,14.257 92.037,14.318 91.986,14.382 91.94,14.451 91.899,14.523 91.865,14.598 91.836,14.675 91.814,14.754 91.798,14.835 91.788,14.917 91.785,15 91.788,15.082 91.798,15.164 91.814,15.245 91.836,15.324 91.865,15.401 91.899,15.476 91.94,15.548 91.986,15.617 92.037,15.681 92.093,15.742 92.153,15.798 92.218,15.849 92.286,15.895 92.358,15.935 "
       style="display:inline;fill:none;stroke:#0000f1;stroke-width:0.028;stroke-miterlimit:4;stroke-dasharray:none;stroke-opacity:1"
       id="polygon22893" />
    <path
       id="path23686"
       d="m 141.009,12.150898 0.237,0.009 0.233,0.027 0.232,0.046 0.226,0.064 0.221,0.082 0.214,0.098 0.206,0.116 0.196,0.13 0.185,0.146 0.173,0.16 0.16,0.173 0.145,0.185 0.131,0.196 0.116,0.206 0.098,0.213 0.082,0.221 0.064,0.227 0.046,0.231 0.027,0.234 0.01,0.236 v 2.29421 l -0.001,0.025 0.02,0.493 0.058,0.489 0.096,0.484 0.134,0.475 0.171,0.462 0.206,0.448 0.241,0.43 0.274,0.41 0.305,0.388 0.335,0.362 0.362,0.334 0.387,0.306 0.41,0.274 0.43,0.241 0.448,0.206 0.463,0.171 0.474,0.133 0.484,0.097 0.49,0.058 0.352,0.014 v 0.01 l 0.14,-0.005 0.493,0.019 0.49,0.058 0.484,0.097 0.474,0.133 0.463,0.171 0.448,0.206 0.43,0.241 0.41,0.274 0.387,0.306 0.362,0.334 0.335,0.362 0.305,0.388 0.274,0.41 0.241,0.43 0.206,0.448 0.171,0.462 0.134,0.475 0.096,0.484 0.058,0.489 0.019,0.493 -0.019,0.493 -0.058,0.489 -0.096,0.484 -0.134,0.475 -0.171,0.462 -0.206,0.448 -0.241,0.43 -0.274,0.41 -0.305,0.388 -0.335,0.362 -0.362,0.334 -0.387,0.306 -0.41,0.274 -0.43,0.241 -0.448,0.206 -0.463,0.171 -0.474,0.133 -0.484,0.097 -0.49,0.058 -0.493,0.019 -0.14,-0.005 v 0.01 l -0.352,0.014 -0.49,0.058 -0.484,0.097 -0.474,0.133 -0.463,0.171 -0.448,0.206 -0.43,0.241 -0.41,0.274 -0.387,0.306 -0.362,0.334 -0.335,0.362 -0.305,0.388 -0.274,0.41 -0.241,0.43 -0.206,0.448 -0.171,0.462 -0.134,0.475 -0.096,0.484 -0.058,0.489 -0.02,0.493 0.001,0.025 -0.001,46.345778 0.02,0.493 0.058,0.489 0.096,0.484 0.134,0.475 0.171,0.462 0.206,0.448 0.241,0.43 0.274,0.41 0.305,0.388 0.335,0.362 0.362,0.334 0.387,0.306 0.41,0.274 0.43,0.241 0.448,0.206 0.463,0.171 0.474,0.133 0.484,0.097 0.49,0.058 0.352,0.014 v 0.01 l 0.14,-0.005 0.493,0.019 0.49,0.058 0.484,0.097 0.474,0.133 0.463,0.171 0.448,0.206 0.43,0.241 0.41,0.274 0.387,0.306 0.362,0.334 0.335,0.362 0.305,0.388 0.274,0.41 0.241,0.43 0.206,0.448 0.171,0.462 0.134,0.475004 0.096,0.484 0.058,0.489 0.019,0.493 -0.019,0.493 -0.058,0.489 -0.096,0.484 -0.134,0.475 -0.171,0.462 -0.206,0.448 -0.241,0.43 -0.274,0.41 -0.305,0.388 -0.335,0.362 -0.362,0.334 -0.387,0.306 -0.41,0.274 -0.43,0.241 -0.448,0.206 -0.463,0.171 -0.474,0.133 -0.484,0.097 -0.49,0.058 -0.493,0.019 -0.14,-0.005 v 0.01 l -0.352,0.014 -0.49,0.058 -0.484,0.097 -0.474,0.133 -0.463,0.171 -0.448,0.206 -0.43,0.241 -0.41,0.274 -0.387,0.306 -0.362,0.334 -0.335,0.362 -0.305,0.388 -0.274,0.41 -0.241,0.43 -0.206,0.448 -0.171,0.462 -0.134,0.475 -0.096,0.484 -0.058,0.489 -0.02,0.493 v 2.32011 l -0.009,0.235 -0.027,0.234 -0.046,0.231 -0.064,0.227 -0.082,0.221 -0.098,0.213 -0.116,0.206 -0.131,0.196 -0.145,0.185 -0.16,0.173 -0.173,0.16 -0.185,0.146 -0.196,0.13 -0.206,0.116 -0.214,0.098 -0.221,0.082 -0.226,0.064 -0.232,0.046 -0.233,0.027 -0.237,0.01 H 20.56 l -0.236,-0.01 -0.234,-0.027 -0.231,-0.046 -0.227,-0.064 -0.221,-0.082 -0.213,-0.098 -0.206,-0.116 -0.196,-0.13 -0.185,-0.146 -0.173,-0.16 -0.16,-0.173 -0.146,-0.185 -0.13,-0.196 -0.116,-0.206 -0.098,-0.213 -0.082,-0.221 -0.064,-0.227 -0.046,-0.231 -0.027,-0.234 -0.0089,-0.236 -5e-5,-101.248102 0.009,-0.236 0.027,-0.234 0.046,-0.231 0.064,-0.227 0.082,-0.221 0.098,-0.213 0.116,-0.206 0.13,-0.196 0.146,-0.185 0.16,-0.173 0.173,-0.16 0.185,-0.146 0.196,-0.13 0.206,-0.116 0.213,-0.098 0.221,-0.082 0.227,-0.064 0.231,-0.046 0.234,-0.027 0.236,-0.01 z"
       style="display:inline;fill:none;fill-opacity:1;stroke:#0000f1;stroke-width:0.028;stroke-miterlimit:4;stroke-dasharray:none;stroke-opacity:1"
       inkscape:connector-curvature="0"
       sodipodi:nodetypes="ccccccccccccccccccccccccccccccccccccccccccccccccccccccccccccccccccccccccccccccccccccccccccccccccccccccccccccccccccccccccccccccccccccccccccccccccccccccccccccccccccccccccccccccccccccccccccccccccccccccccccccccccccccccccccccccccccccccccccccccccccccccccccccccccc" />
  </g>
</svg>
