<?xml version="1.0" encoding="UTF-8" standalone="no"?>
<!-- Generated by SVGo -->

<svg
   xmlns:dc="http://purl.org/dc/elements/1.1/"
   xmlns:cc="http://creativecommons.org/ns#"
   xmlns:rdf="http://www.w3.org/1999/02/22-rdf-syntax-ns#"
   xmlns:svg="http://www.w3.org/2000/svg"
   xmlns="http://www.w3.org/2000/svg"
   xmlns:sodipodi="http://sodipodi.sourceforge.net/DTD/sodipodi-0.dtd"
   xmlns:inkscape="http://www.inkscape.org/namespaces/inkscape"
   width="139.03796mm"
   height="88.228004mm"
   viewBox="0 0 139.03796 88.228004"
   version="1.1"
   id="svg35893"
   sodipodi:docname="all-layers-2screws.svg"
   inkscape:version="0.92.4 5da689c313, 2019-01-14">
  <metadata
     id="metadata35899">
    <rdf:RDF>
      <cc:Work
         rdf:about="">
        <dc:format>image/svg+xml</dc:format>
        <dc:type
           rdf:resource="http://purl.org/dc/dcmitype/StillImage" />
        <dc:title></dc:title>
      </cc:Work>
    </rdf:RDF>
  </metadata>
  <defs
     id="defs35897" />
  <sodipodi:namedview
     pagecolor="#ffffff"
     bordercolor="#666666"
     borderopacity="1"
     objecttolerance="10"
     gridtolerance="10"
     guidetolerance="10"
     inkscape:pageopacity="0"
     inkscape:pageshadow="2"
     inkscape:window-width="1920"
     inkscape:window-height="1061"
     id="namedview35895"
     showgrid="false"
     inkscape:zoom="1.0675"
     inkscape:cx="225.633"
     inkscape:cy="131.54645"
     inkscape:window-x="1080"
     inkscape:window-y="306"
     inkscape:window-maximized="0"
     inkscape:current-layer="layer1"
     inkscape:snap-bbox="false"
     inkscape:bbox-paths="true"
     inkscape:object-paths="true"
     inkscape:snap-midpoints="false"
     inkscape:bbox-nodes="true"
     inkscape:snap-bbox-edge-midpoints="false"
     inkscape:snap-smooth-nodes="false"
     inkscape:snap-intersection-paths="true"
     inkscape:object-nodes="true"
     inkscape:measure-start="337.597,469.866"
     inkscape:measure-end="342.049,470.613"
     inkscape:snap-bbox-midpoints="true"
     inkscape:snap-nodes="true"
     inkscape:snap-others="false"
     inkscape:document-units="mm"
     fit-margin-top="0"
     fit-margin-left="0"
     fit-margin-right="0"
     fit-margin-bottom="0" />

  <g
     inkscape:groupmode="layer"
     id="layer2"
     inkscape:label="switch/middle/base"
     style="display:inline"
     transform="translate(-17.54605,-31.186998)">
    <circle
       style="fill:none;fill-opacity:1;stroke:#0000ff;stroke-width:0.028;stroke-linecap:round;stroke-linejoin:round;stroke-miterlimit:4;stroke-dasharray:none;stroke-dashoffset:0;stroke-opacity:1;paint-order:normal"
       id="path23671"
       cx="150.2905"
       cy="49.080208"
       r="2.3999999" />
    <circle
       r="2.3999999"
       cy="101.52089"
       cx="150.2905"
       id="circle23673"
       style="fill:none;fill-opacity:1;stroke:#0000ff;stroke-width:0.028;stroke-linecap:round;stroke-linejoin:round;stroke-miterlimit:4;stroke-dasharray:none;stroke-dashoffset:0;stroke-opacity:1;paint-order:normal" />
  </g>
  <g
     inkscape:groupmode="layer"
     id="layer3"
     inkscape:label="middle"
     style="display:inline"
     transform="translate(-17.54605,-31.186998)">
    <path
       inkscape:connector-curvature="0"
       style="fill:none;fill-opacity:1;stroke:#0000fa;stroke-width:0.028;stroke-miterlimit:4;stroke-dasharray:none;stroke-opacity:1"
       d="m 80.115,114.784 -0.124,0.057 -0.12,0.067 -0.115,0.077 -0.108,0.085 -0.1,0.093 -0.094,0.101 -0.085,0.108 -0.076,0.114 -0.067,0.12 -0.058,0.125 -0.047,0.129 -0.038,0.132 -0.026,0.135 -0.017,0.136 -0.005,0.138 0.005,0.137 0.017,0.136 0.026,0.135 0.038,0.132 0.047,0.129 0.058,0.125 0.067,0.12 0.076,0.114 0.085,0.108 0.094,0.101 0.1,0.093 0.108,0.085 0.115,0.077 0.12,0.067 0.124,0.057 0.129,0.048 0.132,0.037 0.135,0.027 0.137,0.016 0.137,0.006 0.137,-0.006 0.137,-0.016 0.135,-0.027 0.132,-0.037 0.129,-0.048 0.124,-0.057 0.12,-0.067 0.115,-0.077 0.108,-0.085 0.1,-0.093 0.094,-0.101 0.085,-0.108 0.076,-0.114 0.067,-0.12 0.058,-0.125 0.047,-0.129 0.038,-0.132 0.026,-0.135 0.017,-0.136 0.005,-0.137 -0.005,-0.138 -0.017,-0.136 -0.026,-0.135 -0.038,-0.132 -0.047,-0.129 -0.058,-0.125 -0.067,-0.12 -0.076,-0.114 -0.085,-0.108 -0.094,-0.101 -0.1,-0.093 -0.108,-0.085 -0.115,-0.077 -0.12,-0.067 -0.124,-0.057 -0.129,-0.048 -0.132,-0.037 -0.135,-0.027 -0.137,-0.016 -0.137,-0.005 -0.137,0.005 -0.137,0.016 -0.135,0.027 -0.132,0.037 z"
       id="path23564" />
    <path
       inkscape:connector-curvature="0"
       style="fill:none;fill-opacity:1;stroke:#0000fa;stroke-width:0.028;stroke-miterlimit:4;stroke-dasharray:none;stroke-opacity:1"
       d="m 20.697,114.656 -0.137,-0.005 -0.138,0.005 -0.136,0.016 -0.135,0.027 -0.132,0.037 -0.129,0.048 -0.125,0.057 -0.12,0.067 -0.114,0.077 -0.108,0.085 -0.101,0.093 -0.093,0.101 -0.085,0.108 -0.077,0.114 -0.067,0.12 -0.057,0.125 -0.048,0.129 -0.037,0.132 -0.027,0.135 -0.016,0.136 -0.006,0.138 0.006,0.137 0.016,0.136 0.027,0.135 0.037,0.132 0.048,0.129 0.057,0.125 0.067,0.12 0.077,0.114 0.085,0.108 0.093,0.101 0.101,0.093 0.108,0.085 0.114,0.077 0.12,0.067 0.125,0.057 0.129,0.048 0.132,0.037 0.135,0.027 0.136,0.016 0.138,0.006 0.137,-0.006 0.136,-0.016 0.135,-0.027 0.132,-0.037 0.129,-0.048 0.125,-0.057 0.12,-0.067 0.114,-0.077 0.108,-0.085 0.101,-0.093 0.093,-0.101 0.085,-0.108 0.077,-0.114 0.067,-0.12 0.057,-0.125 0.048,-0.129 0.037,-0.132 0.027,-0.135 0.016,-0.136 0.006,-0.137 -0.006,-0.138 -0.016,-0.136 -0.027,-0.135 -0.037,-0.132 -0.048,-0.129 -0.057,-0.125 -0.067,-0.12 -0.077,-0.114 -0.085,-0.108 -0.093,-0.101 -0.101,-0.093 -0.108,-0.085 -0.114,-0.077 -0.12,-0.067 -0.125,-0.057 -0.129,-0.048 -0.132,-0.037 -0.135,-0.027 z"
       id="path23562" />
    <path
       inkscape:connector-curvature="0"
       style="fill:none;fill-opacity:1;stroke:#0000fa;stroke-width:0.028;stroke-miterlimit:4;stroke-dasharray:none;stroke-opacity:1"
       d="m 141.925,114.908 -0.12,-0.067 -0.125,-0.057 -0.129,-0.048 -0.132,-0.037 -0.136,-0.027 -0.135,-0.016 -0.139,-0.005 -0.137,0.005 -0.136,0.016 -0.134,0.027 -0.132,0.037 -0.129,0.048 -0.125,0.057 -0.12,0.067 -0.114,0.077 -0.108,0.085 -0.101,0.093 -0.093,0.101 -0.085,0.108 -0.077,0.114 -0.067,0.12 -0.057,0.125 -0.048,0.129 -0.037,0.132 -0.027,0.135 -0.016,0.136 -0.006,0.138 0.006,0.137 0.016,0.136 0.027,0.135 0.037,0.132 0.048,0.129 0.057,0.125 0.067,0.12 0.077,0.114 0.085,0.108 0.093,0.101 0.101,0.093 0.108,0.085 0.114,0.077 0.12,0.067 0.125,0.057 0.129,0.048 0.132,0.037 0.134,0.027 0.136,0.016 0.137,0.006 0.139,-0.006 0.135,-0.016 0.136,-0.027 0.132,-0.037 0.129,-0.048 0.125,-0.057 0.12,-0.067 0.114,-0.077 0.107,-0.085 0.101,-0.093 0.094,-0.101 0.085,-0.108 0.077,-0.114 0.066,-0.12 0.058,-0.125 0.048,-0.129 0.036,-0.132 0.028,-0.135 0.016,-0.136 0.006,-0.137 -0.006,-0.138 -0.016,-0.136 -0.028,-0.135 -0.036,-0.132 -0.048,-0.129 -0.058,-0.125 -0.066,-0.12 -0.077,-0.114 -0.085,-0.108 -0.094,-0.101 -0.101,-0.093 -0.107,-0.085 z"
       id="path23560" />
    <path
       inkscape:connector-curvature="0"
       style="fill:none;fill-opacity:1;stroke:#0000fa;stroke-width:0.028;stroke-miterlimit:4;stroke-dasharray:none;stroke-opacity:1"
       d="m 22.304,75.164501 -0.016,-0.137 -0.027,-0.135 -0.037,-0.132 -0.048,-0.129 -0.057,-0.124 -0.067,-0.12 -0.077,-0.115 -0.085,-0.108 -0.093,-0.1 -0.101,-0.094 -0.108,-0.085 -0.114,-0.076 -0.12,-0.067 -0.125,-0.058 -0.129,-0.047 -0.132,-0.038 -0.135,-0.026 -0.136,-0.017 -0.137,-0.005 -0.138,0.005 -0.136,0.017 -0.135,0.026 -0.132,0.038 -0.129,0.047 -0.125,0.058 -0.12,0.067 -0.114,0.076 -0.108,0.085 -0.101,0.094 -0.093,0.1 -0.085,0.108 -0.077,0.115 -0.067,0.12 -0.057,0.124 -0.048,0.129 -0.037,0.132 -0.027,0.135 -0.016,0.137 -0.006,0.137 0.006,0.137 0.016,0.137 0.027,0.135 0.037,0.132 0.048,0.129 0.057,0.124 0.067,0.12 0.077,0.115 0.085,0.108 0.093,0.1 0.101,0.094 0.108,0.085 0.114,0.076 0.12,0.067 0.125,0.058 0.129,0.047 0.132,0.038 0.135,0.026 0.136,0.017 0.138,0.005 0.137,-0.005 0.136,-0.017 0.135,-0.026 0.132,-0.038 0.129,-0.047 0.125,-0.058 0.12,-0.067 0.114,-0.076 0.108,-0.085 0.101,-0.094 0.093,-0.1 0.085,-0.108 0.077,-0.115 0.067,-0.12 0.057,-0.124 0.048,-0.129 0.037,-0.132 0.027,-0.135 0.016,-0.137 0.006,-0.137 z"
       id="path23556" />
    <path
       inkscape:connector-curvature="0"
       style="fill:none;fill-opacity:1;stroke:#0000fa;stroke-width:0.028;stroke-miterlimit:4;stroke-dasharray:none;stroke-opacity:1"
       d="m 142.627,75.971 0.048,-0.129 0.036,-0.132 0.028,-0.135 0.016,-0.137 0.006,-0.137 -0.006,-0.137 -0.016,-0.137 -0.028,-0.135 -0.036,-0.132 -0.048,-0.129 -0.058,-0.124 -0.066,-0.12 -0.077,-0.115 -0.085,-0.108 -0.094,-0.1 -0.101,-0.094 -0.107,-0.085 -0.114,-0.076 -0.12,-0.067 -0.125,-0.058 -0.129,-0.047 -0.132,-0.038 -0.136,-0.026 -0.135,-0.017 -0.139,-0.005 -0.137,0.005 -0.136,0.017 -0.134,0.026 -0.132,0.038 -0.129,0.047 -0.125,0.058 -0.12,0.067 -0.114,0.076 -0.108,0.085 -0.101,0.094 -0.093,0.1 -0.085,0.108 -0.077,0.115 -0.067,0.12 -0.057,0.124 -0.048,0.129 -0.037,0.132 -0.027,0.135 -0.016,0.137 -0.006,0.137 0.006,0.137 0.016,0.137 0.027,0.135 0.037,0.132 0.048,0.129 0.057,0.124 0.067,0.12 0.077,0.115 0.085,0.108 0.093,0.1 0.101,0.094 0.108,0.085 0.114,0.076 0.12,0.067 0.125,0.058 0.129,0.047 0.132,0.038 0.134,0.026 0.136,0.017 0.137,0.005 0.139,-0.005 0.135,-0.017 0.136,-0.026 0.132,-0.038 0.129,-0.047 0.125,-0.058 0.12,-0.067 0.114,-0.076 0.107,-0.085 0.101,-0.094 0.094,-0.1 0.085,-0.108 0.077,-0.115 0.066,-0.12 z"
       id="path23554" />
    <path
       inkscape:connector-curvature="0"
       style="fill:none;fill-opacity:1;stroke:#0000fa;stroke-width:0.028;stroke-miterlimit:4;stroke-dasharray:none;stroke-opacity:1"
       d="m 20.96805,35.902999 0.132,-0.037 0.129,-0.048 0.125,-0.057 0.12,-0.067 0.114,-0.077 0.108,-0.085 0.101,-0.093 0.093,-0.101 0.085,-0.108 0.077,-0.114 0.067,-0.12 0.057,-0.125 0.048,-0.129 0.037,-0.132 0.027,-0.135 0.016,-0.136 0.006,-0.137 -0.006,-0.138 -0.016,-0.136 -0.027,-0.135 -0.037,-0.132 -0.048,-0.129 -0.057,-0.125 -0.067,-0.12 -0.077,-0.114 -0.085,-0.108 -0.093,-0.101 -0.101,-0.093 -0.108,-0.085 -0.114,-0.077 -0.12,-0.067 -0.125,-0.057 -0.129,-0.048 -0.132,-0.037 -0.135,-0.027 -0.136,-0.016 -0.137,-0.005 -0.138,0.005 -0.136,0.016 -0.135,0.027 -0.132,0.037 -0.129,0.048 -0.125,0.057 -0.12,0.067 -0.114,0.077 -0.108,0.085 -0.101,0.093 -0.093,0.101 -0.085,0.108 -0.077,0.114 -0.067,0.12 -0.057,0.125 -0.048,0.129 -0.037,0.132 -0.027,0.135 -0.016,0.136 -0.006,0.138 0.006,0.137 0.016,0.136 0.027,0.135 0.037,0.132 0.048,0.129 0.057,0.125 0.067,0.12 0.077,0.114 0.085,0.108 0.093,0.101 0.101,0.093 0.108,0.085 0.114,0.077 0.12,0.067 0.125,0.057 0.129,0.048 0.132,0.037 0.135,0.027 0.136,0.016 0.138,0.006 0.137,-0.006 0.136,-0.016 z"
       id="path23552" />
    <path
       inkscape:connector-curvature="0"
       style="fill:none;fill-opacity:1;stroke:#0000fa;stroke-width:0.028;stroke-miterlimit:4;stroke-dasharray:none;stroke-opacity:1"
       d="m 140.872,35.944999 0.137,0.006 0.139,-0.006 0.135,-0.016 0.136,-0.027 0.132,-0.037 0.129,-0.048 0.125,-0.057 0.12,-0.067 0.114,-0.077 0.107,-0.085 0.101,-0.093 0.094,-0.101 0.085,-0.108 0.077,-0.114 0.066,-0.12 0.058,-0.125 0.048,-0.129 0.036,-0.132 0.028,-0.135 0.016,-0.136 0.006,-0.137 -0.006,-0.138 -0.016,-0.136 -0.028,-0.135 -0.036,-0.132 -0.048,-0.129 -0.058,-0.125 -0.066,-0.12 -0.077,-0.114 -0.085,-0.108 -0.094,-0.101 -0.101,-0.093 -0.107,-0.085 -0.114,-0.077 -0.12,-0.067 -0.125,-0.057 -0.129,-0.048 -0.132,-0.037 -0.136,-0.027 -0.135,-0.016 -0.139,-0.005 -0.137,0.005 -0.136,0.016 -0.134,0.027 -0.132,0.037 -0.129,0.048 -0.125,0.057 -0.12,0.067 -0.114,0.077 -0.108,0.085 -0.101,0.093 -0.093,0.101 -0.085,0.108 -0.077,0.114 -0.067,0.12 -0.057,0.125 -0.048,0.129 -0.037,0.132 -0.027,0.135 -0.016,0.136 -0.006,0.138 0.006,0.137 0.016,0.136 0.027,0.135 0.037,0.132 0.048,0.129 0.057,0.125 0.067,0.12 0.077,0.114 0.085,0.108 0.093,0.101 0.101,0.093 0.108,0.085 0.114,0.077 0.12,0.067 0.125,0.057 0.129,0.048 0.132,0.037 0.134,0.027 z"
       id="polygon35885" />
    <polygon
       points="77.649,8.137 77.665,8.273 77.692,8.408 77.73,8.54 77.777,8.669 77.835,8.794 77.902,8.914 77.978,9.028 78.063,9.136 78.157,9.237 78.257,9.33 78.365,9.415 78.48,9.492 78.6,9.559 78.724,9.616 78.853,9.664 78.985,9.701 79.12,9.728 79.257,9.744 79.394,9.75 79.531,9.744 79.668,9.728 79.803,9.701 79.935,9.664 80.064,9.616 80.188,9.559 80.308,9.492 80.423,9.415 80.531,9.33 80.631,9.237 80.725,9.136 80.81,9.028 80.886,8.914 80.953,8.794 81.011,8.669 81.058,8.54 81.096,8.408 81.122,8.273 81.139,8.137 81.144,8 81.139,7.862 81.122,7.726 81.096,7.591 81.058,7.459 81.011,7.33 80.953,7.205 80.886,7.085 80.81,6.972 80.725,6.864 80.631,6.763 80.531,6.67 80.423,6.585 80.308,6.508 80.188,6.441 80.064,6.384 79.935,6.336 79.803,6.299 79.668,6.272 79.531,6.256 79.394,6.25 79.257,6.256 79.12,6.272 78.985,6.299 78.853,6.336 78.724,6.384 78.6,6.441 78.48,6.508 78.365,6.585 78.257,6.67 78.157,6.763 78.063,6.864 77.978,6.972 77.902,7.085 77.835,7.205 77.777,7.33 77.73,7.459 77.692,7.591 77.665,7.726 77.649,7.862 77.644,8 "
       style="fill:none;stroke:#0000fa;stroke-width:0.028;stroke-miterlimit:4;stroke-dasharray:none;stroke-opacity:1"
       id="polygon35889"
       transform="translate(-1.5580459,26.275178)" />
    <polygon
       points="103.666,8.273 103.692,8.408 103.73,8.54 103.777,8.669 103.835,8.794 103.902,8.914 103.978,9.028 104.063,9.136 104.157,9.237 104.257,9.33 104.365,9.415 104.48,9.492 104.6,9.559 104.724,9.616 104.853,9.664 104.985,9.701 105.12,9.728 105.257,9.744 105.394,9.75 105.531,9.744 105.668,9.728 105.803,9.701 105.935,9.664 106.064,9.616 106.188,9.559 106.308,9.492 106.423,9.415 106.531,9.33 106.631,9.237 106.725,9.136 106.81,9.028 106.886,8.914 106.953,8.794 107.011,8.669 107.058,8.54 107.096,8.408 107.122,8.273 107.139,8.137 107.144,8 107.139,7.862 107.122,7.726 107.096,7.591 107.058,7.459 107.011,7.33 106.953,7.205 106.886,7.085 106.81,6.972 106.725,6.864 106.631,6.763 106.531,6.67 106.423,6.585 106.308,6.508 106.188,6.441 106.064,6.384 105.935,6.336 105.803,6.299 105.668,6.272 105.531,6.256 105.394,6.25 105.257,6.256 105.12,6.272 104.985,6.299 104.853,6.336 104.724,6.384 104.6,6.441 104.48,6.508 104.365,6.585 104.257,6.67 104.157,6.763 104.063,6.864 103.978,6.972 103.902,7.085 103.835,7.205 103.777,7.33 103.73,7.459 103.692,7.591 103.666,7.726 103.649,7.862 103.644,8 103.649,8.137 "
       style="fill:none;stroke:#0000fa;stroke-width:0.028;stroke-miterlimit:4;stroke-dasharray:none;stroke-opacity:1"
       id="polygon35891"
       transform="translate(2.992004,26.275178)" />
    <path
       id="path23550"
       style="fill:none;fill-opacity:1;stroke:#0000fa;stroke-width:0.028;stroke-miterlimit:4;stroke-dasharray:none;stroke-opacity:1"
       d="m 125.135,31.200999 h 15.874 l 0.237,0.009 0.233,0.027 0.232,0.046 0.226,0.064 0.221,0.082 0.214,0.098 0.206,0.116 0.196,0.13 0.185,0.146 0.173,0.16 0.16,0.173 0.145,0.185 0.131,0.196 0.116,0.206 0.098,0.213 0.082,0.221 0.064,0.227 0.046,0.231 0.027,0.234 0.01,0.236 v 2.29421 l -0.001,0.025 0.02,0.493 0.058,0.489 0.096,0.484 0.134,0.475 0.171,0.462 0.206,0.448 0.241,0.43 0.274,0.41 0.305,0.388 0.335,0.362 0.362,0.334 0.387,0.306 0.41,0.274 0.43,0.241 0.448,0.206 0.463,0.171 0.474,0.133 0.484,0.097 0.49,0.058 0.352,0.014 v 0.01 l 0.14,-0.005 0.493,0.019 0.49,0.058 0.484,0.097 0.474,0.133 0.463,0.171 0.448,0.206 0.43,0.241 0.41,0.274 0.387,0.306 0.362,0.334 0.335,0.362 0.305,0.388 0.274,0.41 0.241,0.43 0.206,0.448 0.171,0.462 0.134,0.475 0.096,0.484 0.058,0.489 0.019,0.493 -0.019,0.493 -0.058,0.489 -0.096,0.484 -0.134,0.475 -0.171,0.462 -0.206,0.448 -0.241,0.43 -0.274,0.41 -0.305,0.388 -0.335,0.362 -0.362,0.334 -0.387,0.306 -0.41,0.274 -0.43,0.241 -0.448,0.206 -0.463,0.171 -0.474,0.133 -0.484,0.097 -0.49,0.058 -0.493,0.019 -0.14,-0.005 v 0.01 l -0.352,0.014 -0.49,0.058 -0.484,0.097 -0.474,0.133 -0.463,0.171 -0.448,0.206 -0.43,0.241 -0.41,0.274 -0.387,0.306 -0.362,0.334 -0.335,0.362 -0.305,0.388 -0.274,0.41 -0.241,0.43 -0.206,0.448 -0.171,0.462 -0.134,0.475 -0.096,0.484 -0.058,0.489 -0.02,0.493 0.001,0.025 -0.001,27.295677 0.02,0.493 0.058,0.489 0.096,0.484 0.134,0.475 0.171,0.462 0.206,0.448 0.241,0.43 0.274,0.41 0.305,0.388 0.335,0.362 0.362,0.334 0.387,0.306 0.41,0.274 0.43,0.241 0.448,0.206 0.463,0.171 0.474,0.133 0.484,0.097 0.49,0.058 0.352,0.014 v 0.01 l 0.14,-0.005 0.493,0.019 0.49,0.058 0.484,0.097 0.474,0.133 0.463,0.171 0.448,0.206 0.43,0.241 0.41,0.274 0.387,0.306 0.362,0.334 0.335,0.362 0.305,0.388 0.274,0.41 0.241,0.43 0.206,0.448 0.171,0.462 0.134,0.475004 0.096,0.484 0.058,0.489 0.019,0.493 -0.019,0.493 -0.058,0.489 -0.096,0.484 -0.134,0.475 -0.171,0.462 -0.206,0.448 -0.241,0.43 -0.274,0.41 -0.305,0.388 -0.335,0.362 -0.362,0.334 -0.387,0.306 -0.41,0.274 -0.43,0.241 -0.448,0.206 -0.463,0.171 -0.474,0.133 -0.484,0.097 -0.49,0.058 -0.493,0.019 -0.14,-0.005 v 0.01 l -0.352,0.014 -0.49,0.058 -0.484,0.097 -0.474,0.133 -0.463,0.171 -0.448,0.206 -0.43,0.241 -0.41,0.274 -0.387,0.306 -0.362,0.334 -0.335,0.362 -0.305,0.388 -0.274,0.41 -0.241,0.43 -0.206,0.448 -0.171,0.462 -0.134,0.475 -0.096,0.484 -0.058,0.489 -0.02,0.493 v 2.32011 l -0.009,0.235 -0.027,0.234 -0.046,0.231 -0.064,0.227 -0.082,0.221 -0.098,0.213 -0.116,0.206 -0.131,0.196 -0.145,0.185 -0.16,0.173 -0.173,0.16 -0.185,0.146 -0.196,0.13 -0.206,0.116 -0.214,0.098 -0.221,0.082 -0.226,0.064 -0.232,0.046 -0.233,0.027 -0.237,0.01 H 20.56 l -0.236,-0.01 -0.234,-0.027 -0.231,-0.046 -0.227,-0.064 -0.221,-0.082 -0.213,-0.098 -0.206,-0.116 -0.196,-0.13 -0.185,-0.146 -0.173,-0.16 -0.16,-0.173 -0.146,-0.185 -0.13,-0.196 -0.116,-0.206 -0.098,-0.213 -0.082,-0.221 -0.064,-0.227 -0.046,-0.231 -0.027,-0.234 -0.0089,-0.236 -5e-5,-82.198001 0.009,-0.236 0.027,-0.234 0.046,-0.231 0.064,-0.227 0.082,-0.221 0.098,-0.213 0.116,-0.206 0.13,-0.196 0.146,-0.185 0.16,-0.173 0.173,-0.16 0.185,-0.146 0.196,-0.13 0.206,-0.116 0.213,-0.098 0.221,-0.082 0.227,-0.064 0.231,-0.046 0.234,-0.027 0.236,-0.01 h 13.876 v 6.15 h -10.727 L 23.709,113.251 H 137.86 V 37.349999 h -12.725 z"
       inkscape:connector-curvature="0"
       sodipodi:nodetypes="ccccccccccccccccccccccccccccccccccccccccccccccccccccccccccccccccccccccccccccccccccccccccccccccccccccccccccccccccccccccccccccccccccccccccccccccccccccccccccccccccccccccccccccccccccccccccccccccccccccccccccccccccccccccccccccccccccccccccccccccccccccccccccccccccccccccccc" />
    <rect
       style="fill:none;fill-opacity:1;stroke:#0000fa;stroke-width:0.028;stroke-miterlimit:4;stroke-dasharray:none;stroke-opacity:1"
       id="rect42546"
       width="38.5"
       height="6.1473441"
       x="73.835999"
       y="31.200998" />
  </g>
  <g
     inkscape:groupmode="layer"
     id="layer5"
     inkscape:label="switch/base"
     style="display:inline"
     transform="translate(-17.54605,-31.186998)">
    <polygon
       id="polygon23629"
       style="fill:none;stroke:#0000b8;stroke-width:0.028;stroke-miterlimit:4;stroke-dasharray:none;stroke-opacity:1"
       points="66.037,14.318 65.986,14.382 65.94,14.451 65.899,14.523 65.865,14.598 65.836,14.675 65.814,14.754 65.798,14.835 65.788,14.917 65.785,15 65.788,15.082 65.798,15.164 65.814,15.245 65.836,15.324 65.865,15.401 65.899,15.476 65.94,15.548 65.986,15.617 66.037,15.681 66.093,15.742 66.153,15.798 66.218,15.849 66.286,15.895 66.358,15.935 66.433,15.97 66.511,15.998 66.59,16.02 66.671,16.037 66.753,16.046 66.835,16.05 66.917,16.046 66.999,16.037 67.08,16.02 67.159,15.998 67.237,15.97 67.312,15.935 67.384,15.895 67.452,15.849 67.517,15.798 67.577,15.742 67.633,15.681 67.684,15.617 67.73,15.548 67.771,15.476 67.805,15.401 67.834,15.324 67.856,15.245 67.872,15.164 67.882,15.082 67.885,15 67.882,14.917 67.872,14.835 67.856,14.754 67.834,14.675 67.805,14.598 67.771,14.523 67.73,14.451 67.684,14.382 67.633,14.318 67.577,14.257 67.517,14.201 67.452,14.15 67.384,14.104 67.312,14.064 67.237,14.029 67.159,14.001 67.08,13.979 66.999,13.962 66.917,13.953 66.835,13.95 66.753,13.953 66.671,13.962 66.59,13.979 66.511,14.001 66.433,14.029 66.358,14.064 66.286,14.104 66.218,14.15 66.153,14.201 66.093,14.257 "
       transform="translate(-46.275451,19.201999)" />
    <polygon
       transform="translate(-46.275499,60.3015)"
       points="65.865,15.401 65.899,15.476 65.94,15.548 65.986,15.617 66.037,15.681 66.093,15.742 66.153,15.798 66.218,15.849 66.286,15.895 66.358,15.935 66.433,15.97 66.511,15.998 66.59,16.02 66.671,16.037 66.753,16.046 66.835,16.05 66.917,16.046 66.999,16.037 67.08,16.02 67.159,15.998 67.237,15.97 67.312,15.935 67.384,15.895 67.452,15.849 67.517,15.798 67.577,15.742 67.633,15.681 67.684,15.617 67.73,15.548 67.771,15.476 67.805,15.401 67.834,15.324 67.856,15.245 67.872,15.164 67.882,15.082 67.885,15 67.882,14.917 67.872,14.835 67.856,14.754 67.834,14.675 67.805,14.598 67.771,14.523 67.73,14.451 67.684,14.382 67.633,14.318 67.577,14.257 67.517,14.201 67.452,14.15 67.384,14.104 67.312,14.064 67.237,14.029 67.159,14.001 67.08,13.979 66.999,13.962 66.917,13.953 66.835,13.95 66.753,13.953 66.671,13.962 66.59,13.979 66.511,14.001 66.433,14.029 66.358,14.064 66.286,14.104 66.218,14.15 66.153,14.201 66.093,14.257 66.037,14.318 65.986,14.382 65.94,14.451 65.899,14.523 65.865,14.598 65.836,14.675 65.814,14.754 65.798,14.835 65.788,14.917 65.785,15 65.788,15.082 65.798,15.164 65.814,15.245 65.836,15.324 "
       style="fill:none;stroke:#0000b8;stroke-width:0.028;stroke-miterlimit:4;stroke-dasharray:none;stroke-opacity:1"
       id="polygon23633" />
    <polygon
       id="polygon23635"
       style="fill:none;stroke:#0000b8;stroke-width:0.028;stroke-miterlimit:4;stroke-dasharray:none;stroke-opacity:1"
       points="66.511,15.998 66.59,16.02 66.671,16.037 66.753,16.046 66.835,16.05 66.917,16.046 66.999,16.037 67.08,16.02 67.159,15.998 67.237,15.97 67.312,15.935 67.384,15.895 67.452,15.849 67.517,15.798 67.577,15.742 67.633,15.681 67.684,15.617 67.73,15.548 67.771,15.476 67.805,15.401 67.834,15.324 67.856,15.245 67.872,15.164 67.882,15.082 67.885,15 67.882,14.917 67.872,14.835 67.856,14.754 67.834,14.675 67.805,14.598 67.771,14.523 67.73,14.451 67.684,14.382 67.633,14.318 67.577,14.257 67.517,14.201 67.452,14.15 67.384,14.104 67.312,14.064 67.237,14.029 67.159,14.001 67.08,13.979 66.999,13.962 66.917,13.953 66.835,13.95 66.753,13.953 66.671,13.962 66.59,13.979 66.511,14.001 66.433,14.029 66.358,14.064 66.286,14.104 66.218,14.15 66.153,14.201 66.093,14.257 66.037,14.318 65.986,14.382 65.94,14.451 65.899,14.523 65.865,14.598 65.836,14.675 65.814,14.754 65.798,14.835 65.788,14.917 65.785,15 65.788,15.082 65.798,15.164 65.814,15.245 65.836,15.324 65.865,15.401 65.899,15.476 65.94,15.548 65.986,15.617 66.037,15.681 66.093,15.742 66.153,15.798 66.218,15.849 66.286,15.895 66.358,15.935 66.433,15.97 "
       transform="translate(-46.275499,101.401)" />
    <polygon
       transform="translate(13.95,101.401)"
       points="66.59,16.02 66.671,16.037 66.753,16.046 66.835,16.05 66.917,16.046 66.999,16.037 67.08,16.02 67.159,15.998 67.237,15.97 67.312,15.935 67.384,15.895 67.452,15.849 67.517,15.798 67.577,15.742 67.633,15.681 67.684,15.617 67.73,15.548 67.771,15.476 67.805,15.401 67.834,15.324 67.856,15.245 67.872,15.164 67.882,15.082 67.885,15 67.882,14.917 67.872,14.835 67.856,14.754 67.834,14.675 67.805,14.598 67.771,14.523 67.73,14.451 67.684,14.382 67.633,14.318 67.577,14.257 67.517,14.201 67.452,14.15 67.384,14.104 67.312,14.064 67.237,14.029 67.159,14.001 67.08,13.979 66.999,13.962 66.917,13.953 66.835,13.95 66.753,13.953 66.671,13.962 66.59,13.979 66.511,14.001 66.433,14.029 66.358,14.064 66.286,14.104 66.218,14.15 66.153,14.201 66.093,14.257 66.037,14.318 65.986,14.382 65.94,14.451 65.899,14.523 65.865,14.598 65.836,14.675 65.814,14.754 65.798,14.835 65.788,14.917 65.785,15 65.788,15.082 65.798,15.164 65.814,15.245 65.836,15.324 65.865,15.401 65.899,15.476 65.94,15.548 65.986,15.617 66.037,15.681 66.093,15.742 66.153,15.798 66.218,15.849 66.286,15.895 66.358,15.935 66.433,15.97 66.511,15.998 "
       style="fill:none;stroke:#0000b8;stroke-width:0.028;stroke-miterlimit:4;stroke-dasharray:none;stroke-opacity:1"
       id="polygon23637" />
    <polygon
       id="polygon23639"
       style="fill:none;stroke:#0000b8;stroke-width:0.028;stroke-miterlimit:4;stroke-dasharray:none;stroke-opacity:1"
       points="66.671,16.037 66.753,16.046 66.835,16.05 66.917,16.046 66.999,16.037 67.08,16.02 67.159,15.998 67.237,15.97 67.312,15.935 67.384,15.895 67.452,15.849 67.517,15.798 67.577,15.742 67.633,15.681 67.684,15.617 67.73,15.548 67.771,15.476 67.805,15.401 67.834,15.324 67.856,15.245 67.872,15.164 67.882,15.082 67.885,15 67.882,14.917 67.872,14.835 67.856,14.754 67.834,14.675 67.805,14.598 67.771,14.523 67.73,14.451 67.684,14.382 67.633,14.318 67.577,14.257 67.517,14.201 67.452,14.15 67.384,14.104 67.312,14.064 67.237,14.029 67.159,14.001 67.08,13.979 66.999,13.962 66.917,13.953 66.835,13.95 66.753,13.953 66.671,13.962 66.59,13.979 66.511,14.001 66.433,14.029 66.358,14.064 66.286,14.104 66.218,14.15 66.153,14.201 66.093,14.257 66.037,14.318 65.986,14.382 65.94,14.451 65.899,14.523 65.865,14.598 65.836,14.675 65.814,14.754 65.798,14.835 65.788,14.917 65.785,15 65.788,15.082 65.798,15.164 65.814,15.245 65.836,15.324 65.865,15.401 65.899,15.476 65.94,15.548 65.986,15.617 66.037,15.681 66.093,15.742 66.153,15.798 66.218,15.849 66.286,15.895 66.358,15.935 66.433,15.97 66.511,15.998 66.59,16.02 "
       transform="translate(74.175501,101.401)" />
    <polygon
       transform="translate(74.175501,60.301)"
       points="66.753,16.046 66.835,16.05 66.917,16.046 66.999,16.037 67.08,16.02 67.159,15.998 67.237,15.97 67.312,15.935 67.384,15.895 67.452,15.849 67.517,15.798 67.577,15.742 67.633,15.681 67.684,15.617 67.73,15.548 67.771,15.476 67.805,15.401 67.834,15.324 67.856,15.245 67.872,15.164 67.882,15.082 67.885,15 67.882,14.917 67.872,14.835 67.856,14.754 67.834,14.675 67.805,14.598 67.771,14.523 67.73,14.451 67.684,14.382 67.633,14.318 67.577,14.257 67.517,14.201 67.452,14.15 67.384,14.104 67.312,14.064 67.237,14.029 67.159,14.001 67.08,13.979 66.999,13.962 66.917,13.953 66.835,13.95 66.753,13.953 66.671,13.962 66.59,13.979 66.511,14.001 66.433,14.029 66.358,14.064 66.286,14.104 66.218,14.15 66.153,14.201 66.093,14.257 66.037,14.318 65.986,14.382 65.94,14.451 65.899,14.523 65.865,14.598 65.836,14.675 65.814,14.754 65.798,14.835 65.788,14.917 65.785,15 65.788,15.082 65.798,15.164 65.814,15.245 65.836,15.324 65.865,15.401 65.899,15.476 65.94,15.548 65.986,15.617 66.037,15.681 66.093,15.742 66.153,15.798 66.218,15.849 66.286,15.895 66.358,15.935 66.433,15.97 66.511,15.998 66.59,16.02 66.671,16.037 "
       style="fill:none;stroke:#0000b8;stroke-width:0.028;stroke-miterlimit:4;stroke-dasharray:none;stroke-opacity:1"
       id="polygon23641" />
    <polygon
       id="polygon23643"
       style="fill:none;stroke:#0000b8;stroke-width:0.028;stroke-miterlimit:4;stroke-dasharray:none;stroke-opacity:1"
       points="66.835,16.05 66.917,16.046 66.999,16.037 67.08,16.02 67.159,15.998 67.237,15.97 67.312,15.935 67.384,15.895 67.452,15.849 67.517,15.798 67.577,15.742 67.633,15.681 67.684,15.617 67.73,15.548 67.771,15.476 67.805,15.401 67.834,15.324 67.856,15.245 67.872,15.164 67.882,15.082 67.885,15 67.882,14.917 67.872,14.835 67.856,14.754 67.834,14.675 67.805,14.598 67.771,14.523 67.73,14.451 67.684,14.382 67.633,14.318 67.577,14.257 67.517,14.201 67.452,14.15 67.384,14.104 67.312,14.064 67.237,14.029 67.159,14.001 67.08,13.979 66.999,13.962 66.917,13.953 66.835,13.95 66.753,13.953 66.671,13.962 66.59,13.979 66.511,14.001 66.433,14.029 66.358,14.064 66.286,14.104 66.218,14.15 66.153,14.201 66.093,14.257 66.037,14.318 65.986,14.382 65.94,14.451 65.899,14.523 65.865,14.598 65.836,14.675 65.814,14.754 65.798,14.835 65.788,14.917 65.785,15 65.788,15.082 65.798,15.164 65.814,15.245 65.836,15.324 65.865,15.401 65.899,15.476 65.94,15.548 65.986,15.617 66.037,15.681 66.093,15.742 66.153,15.798 66.218,15.849 66.286,15.895 66.358,15.935 66.433,15.97 66.511,15.998 66.59,16.02 66.671,16.037 66.753,16.046 "
       transform="translate(74.175501,19.200999)" />
    <polygon
       transform="translate(11.000954,19.275178)"
       points="65.788,14.917 65.785,15 65.788,15.082 65.798,15.164 65.814,15.245 65.836,15.324 65.865,15.401 65.899,15.476 65.94,15.548 65.986,15.617 66.037,15.681 66.093,15.742 66.153,15.798 66.218,15.849 66.286,15.895 66.358,15.935 66.433,15.97 66.511,15.998 66.59,16.02 66.671,16.037 66.753,16.046 66.835,16.05 66.917,16.046 66.999,16.037 67.08,16.02 67.159,15.998 67.237,15.97 67.312,15.935 67.384,15.895 67.452,15.849 67.517,15.798 67.577,15.742 67.633,15.681 67.684,15.617 67.73,15.548 67.771,15.476 67.805,15.401 67.834,15.324 67.856,15.245 67.872,15.164 67.882,15.082 67.885,15 67.882,14.917 67.872,14.835 67.856,14.754 67.834,14.675 67.805,14.598 67.771,14.523 67.73,14.451 67.684,14.382 67.633,14.318 67.577,14.257 67.517,14.201 67.452,14.15 67.384,14.104 67.312,14.064 67.237,14.029 67.159,14.001 67.08,13.979 66.999,13.962 66.917,13.953 66.835,13.95 66.753,13.953 66.671,13.962 66.59,13.979 66.511,14.001 66.433,14.029 66.358,14.064 66.286,14.104 66.218,14.15 66.153,14.201 66.093,14.257 66.037,14.318 65.986,14.382 65.94,14.451 65.899,14.523 65.865,14.598 65.836,14.675 65.814,14.754 65.798,14.835 "
       style="display:inline;fill:none;stroke:#0000b8;stroke-width:0.028;stroke-miterlimit:4;stroke-dasharray:none;stroke-opacity:1"
       id="polygon22891" />
    <polygon
       transform="translate(15.551004,19.275178)"
       points="91.785,15 91.788,15.082 91.798,15.164 91.814,15.245 91.836,15.324 91.865,15.401 91.899,15.476 91.94,15.548 91.986,15.617 92.037,15.681 92.093,15.742 92.153,15.798 92.218,15.849 92.286,15.895 92.358,15.935 92.433,15.97 92.511,15.998 92.59,16.02 92.671,16.037 92.753,16.046 92.835,16.05 92.917,16.046 92.999,16.037 93.08,16.02 93.159,15.998 93.237,15.97 93.312,15.935 93.384,15.895 93.452,15.849 93.517,15.798 93.577,15.742 93.633,15.681 93.684,15.617 93.73,15.548 93.771,15.476 93.805,15.401 93.834,15.324 93.856,15.245 93.872,15.164 93.882,15.082 93.885,15 93.882,14.917 93.872,14.835 93.856,14.754 93.834,14.675 93.805,14.598 93.771,14.523 93.73,14.451 93.684,14.382 93.633,14.318 93.577,14.257 93.517,14.201 93.452,14.15 93.384,14.104 93.312,14.064 93.237,14.029 93.159,14.001 93.08,13.979 92.999,13.962 92.917,13.953 92.835,13.95 92.753,13.953 92.671,13.962 92.59,13.979 92.511,14.001 92.433,14.029 92.358,14.064 92.286,14.104 92.218,14.15 92.153,14.201 92.093,14.257 92.037,14.318 91.986,14.382 91.94,14.451 91.899,14.523 91.865,14.598 91.836,14.675 91.814,14.754 91.798,14.835 91.788,14.917 "
       style="display:inline;fill:none;stroke:#0000b8;stroke-width:0.028;stroke-miterlimit:4;stroke-dasharray:none;stroke-opacity:1"
       id="polygon22893" />
    <path
       id="path23686"
       d="m 141.009,31.200999 0.237,0.009 0.233,0.027 0.232,0.046 0.226,0.064 0.221,0.082 0.214,0.098 0.206,0.116 0.196,0.13 0.185,0.146 0.173,0.16 0.16,0.173 0.145,0.185 0.131,0.196 0.116,0.206 0.098,0.213 0.082,0.221 0.064,0.227 0.046,0.231 0.027,0.234 0.01,0.236 v 2.29421 l -0.001,0.025 0.02,0.493 0.058,0.489 0.096,0.484 0.134,0.475 0.171,0.462 0.206,0.448 0.241,0.43 0.274,0.41 0.305,0.388 0.335,0.362 0.362,0.334 0.387,0.306 0.41,0.274 0.43,0.241 0.448,0.206 0.463,0.171 0.474,0.133 0.484,0.097 0.49,0.058 0.352,0.014 v 0.01 l 0.14,-0.005 0.493,0.019 0.49,0.058 0.484,0.097 0.474,0.133 0.463,0.171 0.448,0.206 0.43,0.241 0.41,0.274 0.387,0.306 0.362,0.334 0.335,0.362 0.305,0.388 0.274,0.41 0.241,0.43 0.206,0.448 0.171,0.462 0.134,0.475 0.096,0.484 0.058,0.489 0.019,0.493 -0.019,0.493 -0.058,0.489 -0.096,0.484 -0.134,0.475 -0.171,0.462 -0.206,0.448 -0.241,0.43 -0.274,0.41 -0.305,0.388 -0.335,0.362 -0.362,0.334 -0.387,0.306 -0.41,0.274 -0.43,0.241 -0.448,0.206 -0.463,0.171 -0.474,0.133 -0.484,0.097 -0.49,0.058 -0.493,0.019 -0.14,-0.005 v 0.01 l -0.352,0.014 -0.49,0.058 -0.484,0.097 -0.474,0.133 -0.463,0.171 -0.448,0.206 -0.43,0.241 -0.41,0.274 -0.387,0.306 -0.362,0.334 -0.335,0.362 -0.305,0.388 -0.274,0.41 -0.241,0.43 -0.206,0.448 -0.171,0.462 -0.134,0.475 -0.096,0.484 -0.058,0.489 -0.02,0.493 0.001,0.025 -0.001,27.295677 0.02,0.493 0.058,0.489 0.096,0.484 0.134,0.475 0.171,0.462 0.206,0.448 0.241,0.43 0.274,0.41 0.305,0.388 0.335,0.362 0.362,0.334 0.387,0.306 0.41,0.274 0.43,0.241 0.448,0.206 0.463,0.171 0.474,0.133 0.484,0.097 0.49,0.058 0.352,0.014 v 0.01 l 0.14,-0.005 0.493,0.019 0.49,0.058 0.484,0.097 0.474,0.133 0.463,0.171 0.448,0.206 0.43,0.241 0.41,0.274 0.387,0.306 0.362,0.334 0.335,0.362 0.305,0.388 0.274,0.41 0.241,0.43 0.206,0.448 0.171,0.462 0.134,0.475004 0.096,0.484 0.058,0.489 0.019,0.493 -0.019,0.493 -0.058,0.489 -0.096,0.484 -0.134,0.475 -0.171,0.462 -0.206,0.448 -0.241,0.43 -0.274,0.41 -0.305,0.388 -0.335,0.362 -0.362,0.334 -0.387,0.306 -0.41,0.274 -0.43,0.241 -0.448,0.206 -0.463,0.171 -0.474,0.133 -0.484,0.097 -0.49,0.058 -0.493,0.019 -0.14,-0.005 v 0.01 l -0.352,0.014 -0.49,0.058 -0.484,0.097 -0.474,0.133 -0.463,0.171 -0.448,0.206 -0.43,0.241 -0.41,0.274 -0.387,0.306 -0.362,0.334 -0.335,0.362 -0.305,0.388 -0.274,0.41 -0.241,0.43 -0.206,0.448 -0.171,0.462 -0.134,0.475 -0.096,0.484 -0.058,0.489 -0.02,0.493 v 2.32011 l -0.009,0.235 -0.027,0.234 -0.046,0.231 -0.064,0.227 -0.082,0.221 -0.098,0.213 -0.116,0.206 -0.131,0.196 -0.145,0.185 -0.16,0.173 -0.173,0.16 -0.185,0.146 -0.196,0.13 -0.206,0.116 -0.214,0.098 -0.221,0.082 -0.226,0.064 -0.232,0.046 -0.233,0.027 -0.237,0.01 H 20.56 l -0.236,-0.01 -0.234,-0.027 -0.231,-0.046 -0.227,-0.064 -0.221,-0.082 -0.213,-0.098 -0.206,-0.116 -0.196,-0.13 -0.185,-0.146 -0.173,-0.16 -0.16,-0.173 -0.146,-0.185 -0.13,-0.196 -0.116,-0.206 -0.098,-0.213 -0.082,-0.221 -0.064,-0.227 -0.046,-0.231 -0.027,-0.234 -0.0089,-0.236 -5e-5,-82.198001 0.009,-0.236 0.027,-0.234 0.046,-0.231 0.064,-0.227 0.082,-0.221 0.098,-0.213 0.116,-0.206 0.13,-0.196 0.146,-0.185 0.16,-0.173 0.173,-0.16 0.185,-0.146 0.196,-0.13 0.206,-0.116 0.213,-0.098 0.221,-0.082 0.227,-0.064 0.231,-0.046 0.234,-0.027 0.236,-0.01 z"
       style="display:inline;fill:none;fill-opacity:1;stroke:#0000b8;stroke-width:0.028;stroke-miterlimit:4;stroke-dasharray:none;stroke-opacity:1"
       inkscape:connector-curvature="0"
       sodipodi:nodetypes="ccccccccccccccccccccccccccccccccccccccccccccccccccccccccccccccccccccccccccccccccccccccccccccccccccccccccccccccccccccccccccccccccccccccccccccccccccccccccccccccccccccccccccccccccccccccccccccccccccccccccccccccccccccccccccccccccccccccccccccccccccccccccccccccccc" />
  </g>
  <g
     inkscape:groupmode="layer"
     id="layer1"
     inkscape:label="switch"
     style="display:inline"
     transform="translate(-17.54605,-31.186998)">
    <polygon
       transform="translate(12.56005,19.201999)"
       points="13.676,91.675 27.526,91.675 27.526,91.075 28.326,91.075 28.326,78.425 27.526,78.425 27.526,77.825 13.676,77.825 13.676,78.425 12.876,78.425 12.876,91.075 13.676,91.075 "
       style="fill:none;stroke:#0000ff;stroke-width:0.028;stroke-miterlimit:4;stroke-dasharray:none"
       id="polygon22837" />
    <polygon
       transform="translate(12.56005,19.201999)"
       points="46.576,91.075 47.376,91.075 47.376,78.425 46.576,78.425 46.576,77.825 32.726,77.825 32.726,78.425 31.926,78.425 31.926,91.075 32.726,91.075 32.726,91.675 46.576,91.675 "
       style="fill:none;stroke:#0000ff;stroke-width:0.028;stroke-miterlimit:4;stroke-dasharray:none"
       id="polygon22839" />
    <polygon
       transform="translate(12.56005,19.201999)"
       points="66.426,78.425 65.626,78.425 65.626,77.825 51.776,77.825 51.776,78.425 50.976,78.425 50.976,91.075 51.776,91.075 51.776,91.675 65.626,91.675 65.626,91.075 66.426,91.075 "
       style="fill:none;stroke:#0000ff;stroke-width:0.028;stroke-miterlimit:4;stroke-dasharray:none"
       id="polygon22841" />
    <polygon
       transform="translate(12.56005,19.201999)"
       points="84.676,77.825 70.826,77.825 70.826,78.425 70.026,78.425 70.026,91.075 70.826,91.075 70.826,91.675 84.676,91.675 84.676,91.075 85.476,91.075 85.476,78.425 84.676,78.425 "
       style="fill:none;stroke:#0000ff;stroke-width:0.028;stroke-miterlimit:4;stroke-dasharray:none"
       id="polygon22843" />
    <polygon
       transform="translate(12.56005,19.201999)"
       points="89.876,78.425 89.076,78.425 89.076,91.075 89.876,91.075 89.876,91.675 103.726,91.675 103.726,91.075 104.525,91.075 104.525,78.425 103.726,78.425 103.726,77.825 89.876,77.825 "
       style="fill:none;stroke:#0000ff;stroke-width:0.028;stroke-miterlimit:4;stroke-dasharray:none"
       id="polygon22845" />
    <polygon
       transform="translate(12.56005,19.201999)"
       points="108.126,91.075 108.926,91.075 108.926,91.675 122.775,91.675 122.775,91.075 123.575,91.075 123.575,78.425 122.775,78.425 122.775,77.825 108.926,77.825 108.926,78.425 108.126,78.425 "
       style="fill:none;stroke:#0000ff;stroke-width:0.028;stroke-miterlimit:4;stroke-dasharray:none"
       id="polygon22847" />
    <polygon
       transform="translate(12.56005,19.201999)"
       points="13.676,72.625 27.526,72.625 27.526,72.025 28.326,72.025 28.326,59.375 27.526,59.375 27.526,58.775 13.676,58.775 13.676,59.375 12.876,59.375 12.876,72.025 13.676,72.025 "
       style="fill:none;stroke:#0000ff;stroke-width:0.028;stroke-miterlimit:4;stroke-dasharray:none"
       id="polygon22849" />
    <polygon
       transform="translate(12.56005,19.201999)"
       points="46.576,72.025 47.376,72.025 47.376,59.375 46.576,59.375 46.576,58.775 32.726,58.775 32.726,59.375 31.926,59.375 31.926,72.025 32.726,72.025 32.726,72.625 46.576,72.625 "
       style="fill:none;stroke:#0000ff;stroke-width:0.028;stroke-miterlimit:4;stroke-dasharray:none"
       id="polygon22851" />
    <polygon
       transform="translate(12.56005,19.201999)"
       points="66.426,59.375 65.626,59.375 65.626,58.775 51.776,58.775 51.776,59.375 50.976,59.375 50.976,72.025 51.776,72.025 51.776,72.625 65.626,72.625 65.626,72.025 66.426,72.025 "
       style="fill:none;stroke:#0000ff;stroke-width:0.028;stroke-miterlimit:4;stroke-dasharray:none"
       id="polygon22853" />
    <polygon
       transform="translate(12.56005,19.201999)"
       points="84.676,58.775 70.826,58.775 70.826,59.375 70.026,59.375 70.026,72.025 70.826,72.025 70.826,72.625 84.676,72.625 84.676,72.025 85.476,72.025 85.476,59.375 84.676,59.375 "
       style="fill:none;stroke:#0000ff;stroke-width:0.028;stroke-miterlimit:4;stroke-dasharray:none"
       id="polygon22855" />
    <polygon
       transform="translate(12.56005,19.201999)"
       points="89.876,59.375 89.076,59.375 89.076,72.025 89.876,72.025 89.876,72.625 103.726,72.625 103.726,72.025 104.525,72.025 104.525,59.375 103.726,59.375 103.726,58.775 89.876,58.775 "
       style="fill:none;stroke:#0000ff;stroke-width:0.028;stroke-miterlimit:4;stroke-dasharray:none"
       id="polygon22857" />
    <polygon
       transform="translate(12.56005,19.201999)"
       points="108.126,72.025 108.926,72.025 108.926,72.625 122.775,72.625 122.775,72.025 123.575,72.025 123.575,59.375 122.775,59.375 122.775,58.775 108.926,58.775 108.926,59.375 108.126,59.375 "
       style="fill:none;stroke:#0000ff;stroke-width:0.028;stroke-miterlimit:4;stroke-dasharray:none"
       id="polygon22859" />
    <polygon
       transform="translate(12.56005,19.201999)"
       points="13.676,53.575 27.526,53.575 27.526,52.975 28.326,52.975 28.326,40.325 27.526,40.325 27.526,39.725 13.676,39.725 13.676,40.325 12.876,40.325 12.876,52.975 13.676,52.975 "
       style="fill:none;stroke:#0000ff;stroke-width:0.028;stroke-miterlimit:4;stroke-dasharray:none"
       id="polygon22865" />
    <polygon
       transform="translate(12.56005,19.201999)"
       points="46.576,52.975 47.376,52.975 47.376,40.325 46.576,40.325 46.576,39.725 32.726,39.725 32.726,40.325 31.926,40.325 31.926,52.975 32.726,52.975 32.726,53.575 46.576,53.575 "
       style="fill:none;stroke:#0000ff;stroke-width:0.028;stroke-miterlimit:4;stroke-dasharray:none"
       id="polygon22867" />
    <polygon
       transform="translate(12.56005,19.201999)"
       points="66.426,40.325 65.626,40.325 65.626,39.725 51.776,39.725 51.776,40.325 50.976,40.325 50.976,52.975 51.776,52.975 51.776,53.575 65.626,53.575 65.626,52.975 66.426,52.975 "
       style="fill:none;stroke:#0000ff;stroke-width:0.028;stroke-miterlimit:4;stroke-dasharray:none"
       id="polygon22869" />
    <polygon
       transform="translate(12.56005,19.201999)"
       points="84.676,39.725 70.826,39.725 70.826,40.325 70.026,40.325 70.026,52.975 70.826,52.975 70.826,53.575 84.676,53.575 84.676,52.975 85.476,52.975 85.476,40.325 84.676,40.325 "
       style="fill:none;stroke:#0000ff;stroke-width:0.028;stroke-miterlimit:4;stroke-dasharray:none"
       id="polygon22871" />
    <polygon
       transform="translate(12.56005,19.201999)"
       points="89.876,40.325 89.076,40.325 89.076,52.975 89.876,52.975 89.876,53.575 103.726,53.575 103.726,52.975 104.525,52.975 104.525,40.325 103.726,40.325 103.726,39.725 89.876,39.725 "
       style="fill:none;stroke:#0000ff;stroke-width:0.028;stroke-miterlimit:4;stroke-dasharray:none"
       id="polygon22873" />
    <polygon
       transform="translate(12.56005,19.201999)"
       points="108.126,52.975 108.926,52.975 108.926,53.575 122.775,53.575 122.775,52.975 123.575,52.975 123.575,40.325 122.775,40.325 122.775,39.725 108.926,39.725 108.926,40.325 108.126,40.325 "
       style="fill:none;stroke:#0000ff;stroke-width:0.028;stroke-miterlimit:4;stroke-dasharray:none"
       id="polygon22875" />
    <polygon
       transform="translate(12.56005,19.201999)"
       points="13.676,34.525 27.526,34.525 27.526,33.925 28.326,33.925 28.326,21.275 27.526,21.275 27.526,20.675 13.676,20.675 13.676,21.275 12.876,21.275 12.876,33.925 13.676,33.925 "
       style="fill:none;stroke:#0000ff;stroke-width:0.028;stroke-miterlimit:4;stroke-dasharray:none"
       id="polygon22877" />
    <polygon
       transform="translate(12.56005,19.201999)"
       points="46.576,33.925 47.376,33.925 47.376,21.275 46.576,21.275 46.576,20.675 32.726,20.675 32.726,21.275 31.926,21.275 31.926,33.925 32.726,33.925 32.726,34.525 46.576,34.525 "
       style="fill:none;stroke:#0000ff;stroke-width:0.028;stroke-miterlimit:4;stroke-dasharray:none"
       id="polygon22879" />
    <polygon
       transform="translate(12.56005,19.201999)"
       points="66.426,21.275 65.626,21.275 65.626,20.675 51.776,20.675 51.776,21.275 50.976,21.275 50.976,33.925 51.776,33.925 51.776,34.525 65.626,34.525 65.626,33.925 66.426,33.925 "
       style="fill:none;stroke:#0000ff;stroke-width:0.028;stroke-miterlimit:4;stroke-dasharray:none"
       id="polygon22881" />
    <polygon
       transform="translate(12.56005,19.201999)"
       points="84.676,20.675 70.826,20.675 70.826,21.275 70.026,21.275 70.026,33.925 70.826,33.925 70.826,34.525 84.676,34.525 84.676,33.925 85.476,33.925 85.476,21.275 84.676,21.275 "
       style="fill:none;stroke:#0000ff;stroke-width:0.028;stroke-miterlimit:4;stroke-dasharray:none"
       id="polygon22883" />
    <polygon
       transform="translate(12.56005,19.201999)"
       points="89.876,21.275 89.076,21.275 89.076,33.925 89.876,33.925 89.876,34.525 103.726,34.525 103.726,33.925 104.525,33.925 104.525,21.275 103.726,21.275 103.726,20.675 89.876,20.675 "
       style="fill:none;stroke:#0000ff;stroke-width:0.028;stroke-miterlimit:4;stroke-dasharray:none"
       id="polygon22885" />
    <polygon
       transform="translate(12.56005,19.201999)"
       points="108.126,21.275 108.126,33.925 108.926,33.925 108.926,34.525 122.775,34.525 122.775,33.925 123.575,33.925 123.575,21.275 122.775,21.275 122.775,20.675 108.926,20.675 108.926,21.275 "
       style="fill:none;stroke:#0000ff;stroke-width:0.028;stroke-miterlimit:4;stroke-dasharray:none"
       id="polygon22887" />
  </g>
</svg>
