<?xml version="1.0" encoding="UTF-8" standalone="no"?>
<!-- Generated by SVGo -->

<svg
   xmlns:dc="http://purl.org/dc/elements/1.1/"
   xmlns:cc="http://creativecommons.org/ns#"
   xmlns:rdf="http://www.w3.org/1999/02/22-rdf-syntax-ns#"
   xmlns:svg="http://www.w3.org/2000/svg"
   xmlns="http://www.w3.org/2000/svg"
   xmlns:sodipodi="http://sodipodi.sourceforge.net/DTD/sodipodi-0.dtd"
   xmlns:inkscape="http://www.inkscape.org/namespaces/inkscape"
   width="139.03796mm"
   height="88.228004mm"
   viewBox="0 0 139.03796 88.228004"
   version="1.1"
   id="svg35893"
   sodipodi:docname="all-layers-2screws.svg"
   inkscape:version="0.92.4 5da689c313, 2019-01-14">
  <metadata
     id="metadata35899">
    <rdf:RDF>
      <cc:Work
         rdf:about="">
        <dc:format>image/svg+xml</dc:format>
        <dc:type
           rdf:resource="http://purl.org/dc/dcmitype/StillImage" />
        <dc:title></dc:title>
      </cc:Work>
    </rdf:RDF>
  </metadata>
  <defs
     id="defs35897" />
  <sodipodi:namedview
     pagecolor="#ffffff"
     bordercolor="#666666"
     borderopacity="1"
     objecttolerance="10"
     gridtolerance="10"
     guidetolerance="10"
     inkscape:pageopacity="0"
     inkscape:pageshadow="2"
     inkscape:window-width="1920"
     inkscape:window-height="1061"
     id="namedview35895"
     showgrid="false"
     inkscape:zoom="1.0675"
     inkscape:cx="225.633"
     inkscape:cy="131.54645"
     inkscape:window-x="1080"
     inkscape:window-y="306"
     inkscape:window-maximized="0"
     inkscape:current-layer="layer1"
     inkscape:snap-bbox="false"
     inkscape:bbox-paths="true"
     inkscape:object-paths="true"
     inkscape:snap-midpoints="false"
     inkscape:bbox-nodes="true"
     inkscape:snap-bbox-edge-midpoints="false"
     inkscape:snap-smooth-nodes="false"
     inkscape:snap-intersection-paths="true"
     inkscape:object-nodes="true"
     inkscape:measure-start="337.597,469.866"
     inkscape:measure-end="342.049,470.613"
     inkscape:snap-bbox-midpoints="true"
     inkscape:snap-nodes="true"
     inkscape:snap-others="false"
     inkscape:document-units="mm"
     fit-margin-top="0"
     fit-margin-left="0"
     fit-margin-right="0"
     fit-margin-bottom="0" />
  <g
     inkscape:groupmode="layer"
     id="layer2"
     inkscape:label="All"
     style="display:inline"
     transform="translate(-17.54605,-31.186998)">
    <circle
       style="fill:none;fill-opacity:1;stroke:#0000ff;stroke-width:0.028;stroke-linecap:round;stroke-linejoin:round;stroke-miterlimit:4;stroke-dasharray:none;stroke-dashoffset:0;stroke-opacity:1;paint-order:normal"
       id="path23671"
       cx="150.2905"
       cy="49.080208"
       r="2.3999999" />
    <circle
       r="2.3999999"
       cy="101.52089"
       cx="150.2905"
       id="circle23673"
       style="fill:none;fill-opacity:1;stroke:#0000ff;stroke-width:0.028;stroke-linecap:round;stroke-linejoin:round;stroke-miterlimit:4;stroke-dasharray:none;stroke-dashoffset:0;stroke-opacity:1;paint-order:normal" />
  </g>
  <g
     inkscape:groupmode="layer"
     id="layer3"
     inkscape:label="Middle"
     style="display:inline"
     transform="translate(-17.54605,-31.186998)">
    <path
       inkscape:connector-curvature="0"
       style="fill:none;fill-opacity:1;stroke:#0000fa;stroke-width:0.028;stroke-miterlimit:4;stroke-dasharray:none;stroke-opacity:1"
       d="m 80.115,114.784 -0.124,0.057 -0.12,0.067 -0.115,0.077 -0.108,0.085 -0.1,0.093 -0.094,0.101 -0.085,0.108 -0.076,0.114 -0.067,0.12 -0.058,0.125 -0.047,0.129 -0.038,0.132 -0.026,0.135 -0.017,0.136 -0.005,0.138 0.005,0.137 0.017,0.136 0.026,0.135 0.038,0.132 0.047,0.129 0.058,0.125 0.067,0.12 0.076,0.114 0.085,0.108 0.094,0.101 0.1,0.093 0.108,0.085 0.115,0.077 0.12,0.067 0.124,0.057 0.129,0.048 0.132,0.037 0.135,0.027 0.137,0.016 0.137,0.006 0.137,-0.006 0.137,-0.016 0.135,-0.027 0.132,-0.037 0.129,-0.048 0.124,-0.057 0.12,-0.067 0.115,-0.077 0.108,-0.085 0.1,-0.093 0.094,-0.101 0.085,-0.108 0.076,-0.114 0.067,-0.12 0.058,-0.125 0.047,-0.129 0.038,-0.132 0.026,-0.135 0.017,-0.136 0.005,-0.137 -0.005,-0.138 -0.017,-0.136 -0.026,-0.135 -0.038,-0.132 -0.047,-0.129 -0.058,-0.125 -0.067,-0.12 -0.076,-0.114 -0.085,-0.108 -0.094,-0.101 -0.1,-0.093 -0.108,-0.085 -0.115,-0.077 -0.12,-0.067 -0.124,-0.057 -0.129,-0.048 -0.132,-0.037 -0.135,-0.027 -0.137,-0.016 -0.137,-0.005 -0.137,0.005 -0.137,0.016 -0.135,0.027 -0.132,0.037 z"
       id="path23564" />
    <path
       inkscape:connector-curvature="0"
       style="fill:none;fill-opacity:1;stroke:#0000fa;stroke-width:0.028;stroke-miterlimit:4;stroke-dasharray:none;stroke-opacity:1"
       d="m 20.697,114.656 -0.137,-0.005 -0.138,0.005 -0.136,0.016 -0.135,0.027 -0.132,0.037 -0.129,0.048 -0.125,0.057 -0.12,0.067 -0.114,0.077 -0.108,0.085 -0.101,0.093 -0.093,0.101 -0.085,0.108 -0.077,0.114 -0.067,0.12 -0.057,0.125 -0.048,0.129 -0.037,0.132 -0.027,0.135 -0.016,0.136 -0.006,0.138 0.006,0.137 0.016,0.136 0.027,0.135 0.037,0.132 0.048,0.129 0.057,0.125 0.067,0.12 0.077,0.114 0.085,0.108 0.093,0.101 0.101,0.093 0.108,0.085 0.114,0.077 0.12,0.067 0.125,0.057 0.129,0.048 0.132,0.037 0.135,0.027 0.136,0.016 0.138,0.006 0.137,-0.006 0.136,-0.016 0.135,-0.027 0.132,-0.037 0.129,-0.048 0.125,-0.057 0.12,-0.067 0.114,-0.077 0.108,-0.085 0.101,-0.093 0.093,-0.101 0.085,-0.108 0.077,-0.114 0.067,-0.12 0.057,-0.125 0.048,-0.129 0.037,-0.132 0.027,-0.135 0.016,-0.136 0.006,-0.137 -0.006,-0.138 -0.016,-0.136 -0.027,-0.135 -0.037,-0.132 -0.048,-0.129 -0.057,-0.125 -0.067,-0.12 -0.077,-0.114 -0.085,-0.108 -0.093,-0.101 -0.101,-0.093 -0.108,-0.085 -0.114,-0.077 -0.12,-0.067 -0.125,-0.057 -0.129,-0.048 -0.132,-0.037 -0.135,-0.027 z"
       id="path23562" />
    <path
       inkscape:connector-curvature="0"
       style="fill:none;fill-opacity:1;stroke:#0000fa;stroke-width:0.028;stroke-miterlimit:4;stroke-dasharray:none;stroke-opacity:1"
       d="m 141.925,114.908 -0.12,-0.067 -0.125,-0.057 -0.129,-0.048 -0.132,-0.037 -0.136,-0.027 -0.135,-0.016 -0.139,-0.005 -0.137,0.005 -0.136,0.016 -0.134,0.027 -0.132,0.037 -0.129,0.048 -0.125,0.057 -0.12,0.067 -0.114,0.077 -0.108,0.085 -0.101,0.093 -0.093,0.101 -0.085,0.108 -0.077,0.114 -0.067,0.12 -0.057,0.125 -0.048,0.129 -0.037,0.132 -0.027,0.135 -0.016,0.136 -0.006,0.138 0.006,0.137 0.016,0.136 0.027,0.135 0.037,0.132 0.048,0.129 0.057,0.125 0.067,0.12 0.077,0.114 0.085,0.108 0.093,0.101 0.101,0.093 0.108,0.085 0.114,0.077 0.12,0.067 0.125,0.057 0.129,0.048 0.132,0.037 0.134,0.027 0.136,0.016 0.137,0.006 0.139,-0.006 0.135,-0.016 0.136,-0.027 0.132,-0.037 0.129,-0.048 0.125,-0.057 0.12,-0.067 0.114,-0.077 0.107,-0.085 0.101,-0.093 0.094,-0.101 0.085,-0.108 0.077,-0.114 0.066,-0.12 0.058,-0.125 0.048,-0.129 0.036,-0.132 0.028,-0.135 0.016,-0.136 0.006,-0.137 -0.006,-0.138 -0.016,-0.136 -0.028,-0.135 -0.036,-0.132 -0.048,-0.129 -0.058,-0.125 -0.066,-0.12 -0.077,-0.114 -0.085,-0.108 -0.094,-0.101 -0.101,-0.093 -0.107,-0.085 z"
       id="path23560" />
    <path
       inkscape:connector-curvature="0"
       style="fill:none;fill-opacity:1;stroke:#0000fa;stroke-width:0.028;stroke-miterlimit:4;stroke-dasharray:none;stroke-opacity:1"
       d="m 22.304,75.164501 -0.016,-0.137 -0.027,-0.135 -0.037,-0.132 -0.048,-0.129 -0.057,-0.124 -0.067,-0.12 -0.077,-0.115 -0.085,-0.108 -0.093,-0.1 -0.101,-0.094 -0.108,-0.085 -0.114,-0.076 -0.12,-0.067 -0.125,-0.058 -0.129,-0.047 -0.132,-0.038 -0.135,-0.026 -0.136,-0.017 -0.137,-0.005 -0.138,0.005 -0.136,0.017 -0.135,0.026 -0.132,0.038 -0.129,0.047 -0.125,0.058 -0.12,0.067 -0.114,0.076 -0.108,0.085 -0.101,0.094 -0.093,0.1 -0.085,0.108 -0.077,0.115 -0.067,0.12 -0.057,0.124 -0.048,0.129 -0.037,0.132 -0.027,0.135 -0.016,0.137 -0.006,0.137 0.006,0.137 0.016,0.137 0.027,0.135 0.037,0.132 0.048,0.129 0.057,0.124 0.067,0.12 0.077,0.115 0.085,0.108 0.093,0.1 0.101,0.094 0.108,0.085 0.114,0.076 0.12,0.067 0.125,0.058 0.129,0.047 0.132,0.038 0.135,0.026 0.136,0.017 0.138,0.005 0.137,-0.005 0.136,-0.017 0.135,-0.026 0.132,-0.038 0.129,-0.047 0.125,-0.058 0.12,-0.067 0.114,-0.076 0.108,-0.085 0.101,-0.094 0.093,-0.1 0.085,-0.108 0.077,-0.115 0.067,-0.12 0.057,-0.124 0.048,-0.129 0.037,-0.132 0.027,-0.135 0.016,-0.137 0.006,-0.137 z"
       id="path23556" />
    <path
       inkscape:connector-curvature="0"
       style="fill:none;fill-opacity:1;stroke:#0000fa;stroke-width:0.028;stroke-miterlimit:4;stroke-dasharray:none;stroke-opacity:1"
       d="m 142.627,75.971 0.048,-0.129 0.036,-0.132 0.028,-0.135 0.016,-0.137 0.006,-0.137 -0.006,-0.137 -0.016,-0.137 -0.028,-0.135 -0.036,-0.132 -0.048,-0.129 -0.058,-0.124 -0.066,-0.12 -0.077,-0.115 -0.085,-0.108 -0.094,-0.1 -0.101,-0.094 -0.107,-0.085 -0.114,-0.076 -0.12,-0.067 -0.125,-0.058 -0.129,-0.047 -0.132,-0.038 -0.136,-0.026 -0.135,-0.017 -0.139,-0.005 -0.137,0.005 -0.136,0.017 -0.134,0.026 -0.132,0.038 -0.129,0.047 -0.125,0.058 -0.12,0.067 -0.114,0.076 -0.108,0.085 -0.101,0.094 -0.093,0.1 -0.085,0.108 -0.077,0.115 -0.067,0.12 -0.057,0.124 -0.048,0.129 -0.037,0.132 -0.027,0.135 -0.016,0.137 -0.006,0.137 0.006,0.137 0.016,0.137 0.027,0.135 0.037,0.132 0.048,0.129 0.057,0.124 0.067,0.12 0.077,0.115 0.085,0.108 0.093,0.1 0.101,0.094 0.108,0.085 0.114,0.076 0.12,0.067 0.125,0.058 0.129,0.047 0.132,0.038 0.134,0.026 0.136,0.017 0.137,0.005 0.139,-0.005 0.135,-0.017 0.136,-0.026 0.132,-0.038 0.129,-0.047 0.125,-0.058 0.12,-0.067 0.114,-0.076 0.107,-0.085 0.101,-0.094 0.094,-0.1 0.085,-0.108 0.077,-0.115 0.066,-0.12 z"
       id="path23554" />
    <path
       inkscape:connector-curvature="0"
       style="fill:none;fill-opacity:1;stroke:#0000fa;stroke-width:0.028;stroke-miterlimit:4;stroke-dasharray:none;stroke-opacity:1"
       d="m 20.96805,35.902999 0.132,-0.037 0.129,-0.048 0.125,-0.057 0.12,-0.067 0.114,-0.077 0.108,-0.085 0.101,-0.093 0.093,-0.101 0.085,-0.108 0.077,-0.114 0.067,-0.12 0.057,-0.125 0.048,-0.129 0.037,-0.132 0.027,-0.135 0.016,-0.136 0.006,-0.137 -0.006,-0.138 -0.016,-0.136 -0.027,-0.135 -0.037,-0.132 -0.048,-0.129 -0.057,-0.125 -0.067,-0.12 -0.077,-0.114 -0.085,-0.108 -0.093,-0.101 -0.101,-0.093 -0.108,-0.085 -0.114,-0.077 -0.12,-0.067 -0.125,-0.057 -0.129,-0.048 -0.132,-0.037 -0.135,-0.027 -0.136,-0.016 -0.137,-0.005 -0.138,0.005 -0.136,0.016 -0.135,0.027 -0.132,0.037 -0.129,0.048 -0.125,0.057 -0.12,0.067 -0.114,0.077 -0.108,0.085 -0.101,0.093 -0.093,0.101 -0.085,0.108 -0.077,0.114 -0.067,0.12 -0.057,0.125 -0.048,0.129 -0.037,0.132 -0.027,0.135 -0.016,0.136 -0.006,0.138 0.006,0.137 0.016,0.136 0.027,0.135 0.037,0.132 0.048,0.129 0.057,0.125 0.067,0.12 0.077,0.114 0.085,0.108 0.093,0.101 0.101,0.093 0.108,0.085 0.114,0.077 0.12,0.067 0.125,0.057 0.129,0.048 0.132,0.037 0.135,0.027 0.136,0.016 0.138,0.006 0.137,-0.006 0.136,-0.016 z"
       id="path23552" />
    <path
       inkscape:connector-curvature="0"
       style="fill:none;fill-opacity:1;stroke:#0000fa;stroke-width:0.028;stroke-miterlimit:4;stroke-dasharray:none;stroke-opacity:1"
       d="m 140.872,35.944999 0.137,0.006 0.139,-0.006 0.135,-0.016 0.136,-0.027 0.132,-0.037 0.129,-0.048 0.125,-0.057 0.12,-0.067 0.114,-0.077 0.107,-0.085 0.101,-0.093 0.094,-0.101 0.085,-0.108 0.077,-0.114 0.066,-0.12 0.058,-0.125 0.048,-0.129 0.036,-0.132 0.028,-0.135 0.016,-0.136 0.006,-0.137 -0.006,-0.138 -0.016,-0.136 -0.028,-0.135 -0.036,-0.132 -0.048,-0.129 -0.058,-0.125 -0.066,-0.12 -0.077,-0.114 -0.085,-0.108 -0.094,-0.101 -0.101,-0.093 -0.107,-0.085 -0.114,-0.077 -0.12,-0.067 -0.125,-0.057 -0.129,-0.048 -0.132,-0.037 -0.136,-0.027 -0.135,-0.016 -0.139,-0.005 -0.137,0.005 -0.136,0.016 -0.134,0.027 -0.132,0.037 -0.129,0.048 -0.125,0.057 -0.12,0.067 -0.114,0.077 -0.108,0.085 -0.101,0.093 -0.093,0.101 -0.085,0.108 -0.077,0.114 -0.067,0.12 -0.057,0.125 -0.048,0.129 -0.037,0.132 -0.027,0.135 -0.016,0.136 -0.006,0.138 0.006,0.137 0.016,0.136 0.027,0.135 0.037,0.132 0.048,0.129 0.057,0.125 0.067,0.12 0.077,0.114 0.085,0.108 0.093,0.101 0.101,0.093 0.108,0.085 0.114,0.077 0.12,0.067 0.125,0.057 0.129,0.048 0.132,0.037 0.134,0.027 z"
       id="polygon35885" />
    <polygon
       points="77.649,8.137 77.665,8.273 77.692,8.408 77.73,8.54 77.777,8.669 77.835,8.794 77.902,8.914 77.978,9.028 78.063,9.136 78.157,9.237 78.257,9.33 78.365,9.415 78.48,9.492 78.6,9.559 78.724,9.616 78.853,9.664 78.985,9.701 79.12,9.728 79.257,9.744 79.394,9.75 79.531,9.744 79.668,9.728 79.803,9.701 79.935,9.664 80.064,9.616 80.188,9.559 80.308,9.492 80.423,9.415 80.531,9.33 80.631,9.237 80.725,9.136 80.81,9.028 80.886,8.914 80.953,8.794 81.011,8.669 81.058,8.54 81.096,8.408 81.122,8.273 81.139,8.137 81.144,8 81.139,7.862 81.122,7.726 81.096,7.591 81.058,7.459 81.011,7.33 80.953,7.205 80.886,7.085 80.81,6.972 80.725,6.864 80.631,6.763 80.531,6.67 80.423,6.585 80.308,6.508 80.188,6.441 80.064,6.384 79.935,6.336 79.803,6.299 79.668,6.272 79.531,6.256 79.394,6.25 79.257,6.256 79.12,6.272 78.985,6.299 78.853,6.336 78.724,6.384 78.6,6.441 78.48,6.508 78.365,6.585 78.257,6.67 78.157,6.763 78.063,6.864 77.978,6.972 77.902,7.085 77.835,7.205 77.777,7.33 77.73,7.459 77.692,7.591 77.665,7.726 77.649,7.862 77.644,8 "
       style="fill:none;stroke:#0000fa;stroke-width:0.028;stroke-miterlimit:4;stroke-dasharray:none;stroke-opacity:1"
       id="polygon35889"
       transform="translate(-1.5580459,26.275178)" />
    <polygon
       points="103.666,8.273 103.692,8.408 103.73,8.54 103.777,8.669 103.835,8.794 103.902,8.914 103.978,9.028 104.063,9.136 104.157,9.237 104.257,9.33 104.365,9.415 104.48,9.492 104.6,9.559 104.724,9.616 104.853,9.664 104.985,9.701 105.12,9.728 105.257,9.744 105.394,9.75 105.531,9.744 105.668,9.728 105.803,9.701 105.935,9.664 106.064,9.616 106.188,9.559 106.308,9.492 106.423,9.415 106.531,9.33 106.631,9.237 106.725,9.136 106.81,9.028 106.886,8.914 106.953,8.794 107.011,8.669 107.058,8.54 107.096,8.408 107.122,8.273 107.139,8.137 107.144,8 107.139,7.862 107.122,7.726 107.096,7.591 107.058,7.459 107.011,7.33 106.953,7.205 106.886,7.085 106.81,6.972 106.725,6.864 106.631,6.763 106.531,6.67 106.423,6.585 106.308,6.508 106.188,6.441 106.064,6.384 105.935,6.336 105.803,6.299 105.668,6.272 105.531,6.256 105.394,6.25 105.257,6.256 105.12,6.272 104.985,6.299 104.853,6.336 104.724,6.384 104.6,6.441 104.48,6.508 104.365,6.585 104.257,6.67 104.157,6.763 104.063,6.864 103.978,6.972 103.902,7.085 103.835,7.205 103.777,7.33 103.73,7.459 103.692,7.591 103.666,7.726 103.649,7.862 103.644,8 103.649,8.137 "
       style="fill:none;stroke:#0000fa;stroke-width:0.028;stroke-miterlimit:4;stroke-dasharray:none;stroke-opacity:1"
       id="polygon35891"
       transform="translate(2.992004,26.275178)" />
    <path
       id="path23550"
       style="fill:none;fill-opacity:1;stroke:#0000fa;stroke-width:0.028;stroke-miterlimit:4;stroke-dasharray:none;stroke-opacity:1"
       d="m 125.135,31.200999 h 15.874 l 0.237,0.009 0.233,0.027 0.232,0.046 0.226,0.064 0.221,0.082 0.214,0.098 0.206,0.116 0.196,0.13 0.185,0.146 0.173,0.16 0.16,0.173 0.145,0.185 0.131,0.196 0.116,0.206 0.098,0.213 0.082,0.221 0.064,0.227 0.046,0.231 0.027,0.234 0.01,0.236 v 2.29421 l -0.001,0.025 0.02,0.493 0.058,0.489 0.096,0.484 0.134,0.475 0.171,0.462 0.206,0.448 0.241,0.43 0.274,0.41 0.305,0.388 0.335,0.362 0.362,0.334 0.387,0.306 0.41,0.274 0.43,0.241 0.448,0.206 0.463,0.171 0.474,0.133 0.484,0.097 0.49,0.058 0.352,0.014 v 0.01 l 0.14,-0.005 0.493,0.019 0.49,0.058 0.484,0.097 0.474,0.133 0.463,0.171 0.448,0.206 0.43,0.241 0.41,0.274 0.387,0.306 0.362,0.334 0.335,0.362 0.305,0.388 0.274,0.41 0.241,0.43 0.206,0.448 0.171,0.462 0.134,0.475 0.096,0.484 0.058,0.489 0.019,0.493 -0.019,0.493 -0.058,0.489 -0.096,0.484 -0.134,0.475 -0.171,0.462 -0.206,0.448 -0.241,0.43 -0.274,0.41 -0.305,0.388 -0.335,0.362 -0.362,0.334 -0.387,0.306 -0.41,0.274 -0.43,0.241 -0.448,0.206 -0.463,0.171 -0.474,0.133 -0.484,0.097 -0.49,0.058 -0.493,0.019 -0.14,-0.005 v 0.01 l -0.352,0.014 -0.49,0.058 -0.484,0.097 -0.474,0.133 -0.463,0.171 -0.448,0.206 -0.43,0.241 -0.41,0.274 -0.387,0.306 -0.362,0.334 -0.335,0.362 -0.305,0.388 -0.274,0.41 -0.241,0.43 -0.206,0.448 -0.171,0.462 -0.134,0.475 -0.096,0.484 -0.058,0.489 -0.02,0.493 0.001,0.025 -0.001,27.295677 0.02,0.493 0.058,0.489 0.096,0.484 0.134,0.475 0.171,0.462 0.206,0.448 0.241,0.43 0.274,0.41 0.305,0.388 0.335,0.362 0.362,0.334 0.387,0.306 0.41,0.274 0.43,0.241 0.448,0.206 0.463,0.171 0.474,0.133 0.484,0.097 0.49,0.058 0.352,0.014 v 0.01 l 0.14,-0.005 0.493,0.019 0.49,0.058 0.484,0.097 0.474,0.133 0.463,0.171 0.448,0.206 0.43,0.241 0.41,0.274 0.387,0.306 0.362,0.334 0.335,0.362 0.305,0.388 0.274,0.41 0.241,0.43 0.206,0.448 0.171,0.462 0.134,0.475004 0.096,0.484 0.058,0.489 0.019,0.493 -0.019,0.493 -0.058,0.489 -0.096,0.484 -0.134,0.475 -0.171,0.462 -0.206,0.448 -0.241,0.43 -0.274,0.41 -0.305,0.388 -0.335,0.362 -0.362,0.334 -0.387,0.306 -0.41,0.274 -0.43,0.241 -0.448,0.206 -0.463,0.171 -0.474,0.133 -0.484,0.097 -0.49,0.058 -0.493,0.019 -0.14,-0.005 v 0.01 l -0.352,0.014 -0.49,0.058 -0.484,0.097 -0.474,0.133 -0.463,0.171 -0.448,0.206 -0.43,0.241 -0.41,0.274 -0.387,0.306 -0.362,0.334 -0.335,0.362 -0.305,0.388 -0.274,0.41 -0.241,0.43 -0.206,0.448 -0.171,0.462 -0.134,0.475 -0.096,0.484 -0.058,0.489 -0.02,0.493 v 2.32011 l -0.009,0.235 -0.027,0.234 -0.046,0.231 -0.064,0.227 -0.082,0.221 -0.098,0.213 -0.116,0.206 -0.131,0.196 -0.145,0.185 -0.16,0.173 -0.173,0.16 -0.185,0.146 -0.196,0.13 -0.206,0.116 -0.214,0.098 -0.221,0.082 -0.226,0.064 -0.232,0.046 -0.233,0.027 -0.237,0.01 H 20.56 l -0.236,-0.01 -0.234,-0.027 -0.231,-0.046 -0.227,-0.064 -0.221,-0.082 -0.213,-0.098 -0.206,-0.116 -0.196,-0.13 -0.185,-0.146 -0.173,-0.16 -0.16,-0.173 -0.146,-0.185 -0.13,-0.196 -0.116,-0.206 -0.098,-0.213 -0.082,-0.221 -0.064,-0.227 -0.046,-0.231 -0.027,-0.234 -0.0089,-0.236 -5e-5,-82.198001 0.009,-0.236 0.027,-0.234 0.046,-0.231 0.064,-0.227 0.082,-0.221 0.098,-0.213 0.116,-0.206 0.13,-0.196 0.146,-0.185 0.16,-0.173 0.173,-0.16 0.185,-0.146 0.196,-0.13 0.206,-0.116 0.213,-0.098 0.221,-0.082 0.227,-0.064 0.231,-0.046 0.234,-0.027 0.236,-0.01 h 13.876 v 6.15 h -10.727 L 23.709,113.251 H 137.86 V 37.349999 h -12.725 z"
       inkscape:connector-curvature="0"
       sodipodi:nodetypes="ccccccccccccccccccccccccccccccccccccccccccccccccccccccccccccccccccccccccccccccccccccccccccccccccccccccccccccccccccccccccccccccccccccccccccccccccccccccccccccccccccccccccccccccccccccccccccccccccccccccccccccccccccccccccccccccccccccccccccccccccccccccccccccccccccccccccc" />
    <rect
       style="fill:none;fill-opacity:1;stroke:#0000fa;stroke-width:0.028;stroke-miterlimit:4;stroke-dasharray:none;stroke-opacity:1"
       id="rect42546"
       width="38.5"
       height="6.1473441"
       x="73.835999"
       y="31.200998" />
  </g>
</svg>
